<?xml version="1.0" standalone="no"?>
<!DOCTYPE svg PUBLIC "-//W3C//DTD SVG 20010904//EN"
 "http://www.w3.org/TR/2001/REC-SVG-20010904/DTD/svg10.dtd">
<svg version="1.0" xmlns="http://www.w3.org/2000/svg"
 width="948.000000pt" height="485.000000pt" viewBox="0 0 948.000000 485.000000"
 preserveAspectRatio="xMidYMid meet">

<g transform="translate(0.000000,485.000000) scale(0.100000,-0.100000)"
fill="#000000" stroke="none">
<path d="M2231 4828 c0 -13 28 -149 62 -303 l62 -280 212 -3 213 -2 5 22 c3
13 25 140 50 283 25 143 48 270 50 283 l5 22 -330 0 -330 0 1 -22z"/>
<path d="M175 3926 c-41 -19 -83 -66 -95 -107 -6 -20 -10 -228 -10 -506 0
-551 -2 -539 84 -579 l51 -24 568 0 c545 0 569 -1 606 -20 73 -37 108 -111 97
-204 -7 -65 -44 -118 -98 -145 -44 -21 -53 -21 -676 -21 l-632 0 0 -210 0
-210 884 2 885 3 29 28 c25 24 30 26 36 12 16 -43 42 -45 691 -45 662 0 674 1
690 51 l8 23 13 -26 c7 -14 28 -31 45 -37 22 -8 272 -11 826 -11 856 0 852 0
872 52 l8 23 7 -22 c4 -11 22 -28 41 -37 30 -15 90 -16 533 -14 l499 3 36 28
c76 58 72 4 75 841 l2 748 144 -3 c136 -4 145 -6 184 -32 23 -15 51 -45 62
-67 20 -38 20 -57 20 -780 l0 -740 215 0 215 0 0 811 0 811 128 -4 c148 -4
189 -18 230 -81 l27 -41 5 -695 5 -696 24 -34 c13 -18 42 -42 65 -52 39 -17
79 -19 694 -19 l652 0 0 210 0 210 -435 0 c-369 0 -441 2 -472 15 -50 21 -72
42 -94 90 -17 38 -19 81 -19 707 0 446 -4 676 -11 695 -5 15 -22 41 -37 57
-51 54 -66 56 -388 56 -320 0 -341 -3 -383 -56 l-19 -24 -12 29 c-7 18 -24 34
-42 40 -20 7 -149 11 -348 11 l-316 0 -47 -30 -47 -30 0 30 0 30 -210 0 -210
0 -2 -748 -3 -748 -27 -41 c-16 -24 -44 -49 -70 -62 -41 -20 -60 -21 -274 -21
-126 0 -245 4 -263 10 -35 10 -84 49 -104 85 -9 14 -13 211 -17 710 -6 770 -1
724 -77 782 l-36 28 -744 3 -743 2 0 -209 0 -210 528 -3 527 -3 37 -23 c95
-59 115 -204 42 -292 -53 -62 -33 -60 -611 -60 -290 0 -546 -5 -567 -10 -49
-11 -85 -37 -111 -81 -18 -31 -20 -57 -25 -325 l-5 -291 -29 -37 c-45 -59 -92
-76 -219 -76 -149 0 -200 23 -238 105 -17 38 -19 83 -19 778 l0 737 -210 0
-210 0 0 -732 c-1 -774 -1 -779 -47 -830 -39 -45 -89 -58 -224 -58 -70 0 -140
3 -157 6 l-31 6 -3 342 c-3 336 -3 342 -26 378 -13 20 -40 47 -60 60 l-37 23
-590 5 -590 5 -34 24 c-69 49 -92 166 -48 251 26 52 59 78 113 90 21 5 317 10
657 10 l617 0 0 210 0 210 -847 0 c-686 -1 -854 -3 -878 -14z m4368 -1230 c50
-20 95 -78 102 -131 16 -103 -18 -184 -95 -222 -43 -22 -52 -23 -370 -23 -366
0 -381 3 -435 74 -23 31 -29 49 -32 109 -6 91 21 150 82 184 39 22 47 23 378
23 261 0 345 -3 370 -14z"/>
<path d="M9175 2273 c-101 -53 -140 -173 -89 -274 20 -40 79 -87 126 -100 56
-15 138 1 185 37 104 79 95 255 -15 325 -39 25 -56 29 -111 29 -40 -1 -78 -7
-96 -17z m165 -42 c135 -71 84 -291 -67 -291 -135 0 -206 148 -121 255 42 54
125 70 188 36z"/>
<path d="M9190 2095 c0 -108 1 -115 20 -115 17 0 20 7 20 45 0 36 3 45 18 45
10 0 27 -18 42 -45 20 -37 30 -45 53 -45 l29 0 -17 28 c-10 15 -24 36 -31 46
-12 17 -11 21 9 30 29 15 36 79 11 107 -14 15 -31 19 -86 19 l-68 0 0 -115z
m121 59 c11 -14 10 -18 -6 -30 -10 -8 -31 -14 -47 -14 -24 0 -28 4 -28 30 0
27 3 30 34 30 19 0 39 -7 47 -16z"/>
<path d="M3083 1645 c-41 -18 -63 -61 -63 -125 l0 -50 -35 0 c-33 0 -35 -2
-35 -35 0 -33 2 -35 35 -35 l35 0 0 -125 0 -125 -30 0 c-28 0 -30 -3 -30 -35
l0 -35 100 0 100 0 0 35 c0 32 -2 35 -30 35 l-30 0 0 125 0 125 45 0 c45 0 45
0 45 35 0 35 0 35 -45 35 l-45 0 0 43 c0 62 24 82 89 74 44 -5 49 -4 60 19 15
33 16 32 -26 43 -51 15 -101 13 -140 -4z"/>
<path d="M5260 1625 c0 -32 2 -35 30 -35 l30 0 0 -65 0 -65 -27 7 c-47 13
-126 7 -166 -12 -100 -47 -131 -224 -55 -320 46 -59 154 -83 218 -50 17 9 30
11 30 5 0 -6 27 -10 65 -10 l65 0 0 35 c0 31 -3 35 -25 35 l-25 0 0 255 0 255
-70 0 -70 0 0 -35z m33 -237 l27 -10 0 -104 0 -103 -30 -16 c-93 -48 -194 33
-177 142 16 93 85 129 180 91z"/>
<path d="M7700 1625 c0 -32 2 -35 30 -35 l30 0 0 -220 0 -220 -30 0 c-28 0
-30 -3 -30 -35 l0 -35 100 0 100 0 0 35 c0 32 -2 35 -30 35 l-30 0 0 255 0
255 -70 0 -70 0 0 -35z"/>
<path d="M9290 1625 c0 -31 3 -35 25 -35 24 0 25 -2 25 -64 l0 -64 -46 10
c-54 12 -122 -2 -167 -34 -42 -30 -67 -91 -67 -163 0 -138 86 -219 212 -201
24 3 80 6 126 5 l82 0 0 35 c0 33 -2 36 -30 36 l-30 0 0 255 0 255 -65 0 -65
0 0 -35z m33 -237 c14 -7 17 -24 17 -113 0 -96 -2 -105 -22 -119 -50 -36 -134
-11 -162 48 -58 122 52 244 167 184z"/>
<path d="M145 1631 c-22 -10 -51 -31 -65 -45 -22 -24 -25 -37 -25 -96 0 -59 3
-72 25 -95 33 -35 47 -42 142 -70 44 -13 91 -33 104 -46 32 -30 31 -73 -1
-104 -20 -20 -34 -25 -78 -25 -64 0 -102 24 -112 70 -6 28 -9 30 -56 30 l-49
0 0 -35 c0 -21 5 -35 13 -35 6 -1 21 -15 32 -33 36 -57 78 -77 162 -77 127 0
193 47 201 145 8 103 -22 137 -165 186 -115 39 -133 51 -133 94 0 47 37 75
100 75 57 0 100 -29 100 -66 0 -22 3 -24 55 -24 l55 0 0 40 c0 30 -4 40 -16
40 -8 0 -26 13 -40 29 -13 16 -39 36 -58 45 -46 22 -140 20 -191 -3z"/>
<path d="M1424 1625 c-20 -30 -11 -62 21 -77 52 -23 99 46 59 86 -23 24 -61
20 -80 -9z"/>
<path d="M7096 1634 c-24 -23 -20 -61 9 -80 31 -20 63 -10 76 23 20 53 -45 97
-85 57z"/>
<path d="M4250 1605 c0 -31 3 -35 25 -35 l25 0 0 -210 0 -210 -25 0 c-22 0
-25 -4 -25 -35 l0 -35 95 0 95 0 0 35 c0 32 -2 35 -30 35 l-30 0 0 210 0 210
30 0 c28 0 30 3 30 35 l0 35 -95 0 -95 0 0 -35z"/>
<path d="M2138 1574 c-24 -13 -28 -21 -28 -59 0 -45 0 -45 -35 -45 -33 0 -35
-2 -35 -35 0 -32 2 -35 30 -35 l30 0 0 -112 c0 -182 19 -218 115 -218 62 0 87
16 78 48 -5 21 -10 23 -40 17 -26 -5 -40 -2 -54 11 -17 15 -19 32 -19 136 l0
118 50 0 50 0 0 35 0 35 -50 0 -50 0 0 60 c0 33 -3 60 -7 60 -5 -1 -20 -8 -35
-16z"/>
<path d="M6463 1573 c-30 -15 -33 -21 -33 -60 0 -41 -1 -43 -30 -43 -28 0 -30
-3 -30 -35 0 -32 2 -35 30 -35 l30 0 0 -112 c0 -182 19 -218 115 -218 62 0 87
16 78 48 -5 21 -10 23 -40 17 -26 -5 -40 -2 -54 11 -17 15 -19 32 -19 136 l0
118 45 0 c45 0 45 0 45 35 0 35 0 35 -45 35 l-45 0 0 60 c0 33 -3 60 -7 59 -5
0 -23 -8 -40 -16z"/>
<path d="M618 1470 c-46 -14 -85 -48 -108 -95 -18 -38 -21 -59 -18 -120 3 -64
7 -78 34 -112 17 -21 46 -46 65 -55 41 -22 136 -24 182 -4 119 49 152 238 59
335 -52 54 -137 74 -214 51z m122 -75 c39 -20 60 -63 60 -120 0 -85 -43 -135
-116 -135 -100 0 -150 138 -82 225 35 45 87 56 138 30z"/>
<path d="M1076 1470 c-70 -21 -126 -109 -126 -200 0 -114 66 -191 170 -198 74
-5 121 10 160 54 38 43 38 52 -1 68 -29 12 -32 11 -64 -21 -46 -46 -92 -46
-142 0 -31 29 -37 41 -40 88 -4 45 -1 60 19 89 13 19 36 41 52 48 35 17 87 8
111 -18 12 -13 31 -20 57 -20 37 0 38 1 38 35 0 21 -5 35 -12 35 -7 0 -35 11
-62 25 -51 26 -106 31 -160 15z"/>
<path d="M1737 1466 c-80 -30 -117 -91 -117 -193 0 -83 24 -140 71 -174 45
-31 150 -39 214 -15 60 23 70 38 47 66 -19 23 -20 23 -61 7 -23 -9 -55 -17
-72 -17 -59 0 -119 49 -119 97 0 23 1 23 141 23 l140 0 -6 48 c-11 73 -39 128
-75 147 -44 23 -118 28 -163 11z m124 -85 c52 -52 42 -61 -66 -61 -52 0 -95 3
-95 8 1 18 29 56 51 68 40 22 78 17 110 -15z"/>
<path d="M3357 1466 c-80 -30 -121 -96 -121 -196 0 -91 44 -162 117 -189 36
-14 128 -14 164 0 98 37 145 183 94 296 -38 82 -159 125 -254 89z m156 -94
c52 -52 47 -167 -10 -212 -34 -27 -102 -27 -136 0 -73 58 -56 204 28 241 34
15 87 2 118 -29z"/>
<path d="M6094 1466 c-44 -20 -64 -53 -64 -106 0 -59 21 -79 119 -117 80 -30
103 -52 85 -80 -18 -29 -62 -38 -100 -19 -19 8 -34 22 -34 31 0 11 -11 15 -45
15 -45 0 -45 0 -45 -35 0 -24 5 -35 15 -35 8 0 31 -11 51 -25 29 -20 49 -25
96 -25 98 0 148 39 148 116 0 56 -28 88 -98 114 -99 36 -110 42 -116 56 -8 22
30 54 64 54 20 0 40 -9 56 -25 18 -18 36 -25 64 -25 39 0 40 1 40 35 0 25 -4
35 -16 35 -9 0 -30 10 -47 22 -38 27 -128 35 -173 14z"/>
<path d="M7405 1473 c-48 -10 -105 -36 -105 -47 0 -7 6 -21 14 -31 12 -17 17
-17 45 -5 78 32 151 7 151 -52 0 -28 -1 -28 -62 -28 -69 0 -140 -26 -156 -57
-33 -63 -17 -134 37 -166 36 -21 116 -22 154 -3 15 8 27 11 27 5 0 -5 29 -9
65 -9 l65 0 0 35 c0 31 -3 35 -25 35 l-25 0 0 125 c0 122 -1 125 -27 155 -35
39 -98 56 -158 43z m105 -263 c0 -31 -5 -43 -25 -56 -34 -22 -89 -22 -115 1
-26 24 -25 41 5 70 20 21 34 25 80 25 l55 0 0 -40z"/>
<path d="M8245 1473 c-48 -10 -105 -36 -105 -47 0 -7 6 -21 14 -31 12 -17 17
-17 45 -5 77 31 145 9 153 -50 3 -24 1 -25 -72 -31 -121 -9 -163 -42 -163
-128 0 -38 5 -49 36 -78 32 -29 44 -33 89 -33 29 0 65 7 81 14 15 8 27 11 27
5 0 -5 29 -9 65 -9 l65 0 0 35 c0 31 -3 35 -25 35 l-25 0 0 125 c0 122 -1 125
-27 155 -35 39 -98 56 -158 43z m105 -263 c0 -31 -5 -43 -25 -56 -34 -22 -89
-22 -115 1 -26 24 -25 41 5 70 20 21 34 25 80 25 l55 0 0 -40z"/>
<path d="M1370 1430 c0 -38 2 -40 30 -40 l30 0 0 -120 0 -120 -30 0 c-28 0
-30 -3 -30 -35 l0 -35 95 0 95 0 0 35 c0 31 -3 35 -25 35 l-25 0 0 160 0 160
-70 0 -70 0 0 -40z"/>
<path d="M2320 1430 c0 -32 4 -40 18 -40 14 0 32 -34 80 -156 l62 -155 -17
-50 c-15 -43 -21 -49 -45 -49 -26 0 -28 -3 -28 -40 l0 -40 85 0 85 0 0 40 c0
33 -3 40 -20 40 -11 0 -20 4 -20 9 0 4 36 95 79 202 64 158 83 195 100 197 17
3 21 10 21 43 l0 39 -80 0 -80 0 0 -40 c0 -33 3 -40 20 -40 11 0 20 -2 20 -5
0 -15 -74 -195 -80 -195 -4 0 -21 37 -38 83 -16 45 -33 90 -37 100 -5 13 -2
17 14 17 18 0 21 6 21 40 l0 40 -80 0 -80 0 0 -40z"/>
<path d="M3700 1430 c0 -36 3 -40 25 -40 l25 0 0 -120 0 -120 -25 0 c-22 0
-25 -4 -25 -35 l0 -35 100 0 100 0 0 35 c0 32 -2 35 -30 35 l-30 0 0 100 c0
94 2 103 25 125 25 26 45 32 45 15 0 -5 18 -10 40 -10 l40 0 0 45 0 45 -54 0
c-39 0 -60 -6 -80 -21 l-26 -20 0 20 c0 19 -6 21 -65 21 l-65 0 0 -40z"/>
<path d="M4520 1430 c0 -36 3 -40 25 -40 l25 0 0 -120 0 -120 -25 0 c-22 0
-25 -4 -25 -35 l0 -35 95 0 95 0 0 35 c0 31 -3 35 -25 35 l-25 0 0 110 0 109
30 16 c43 22 87 19 115 -10 23 -22 25 -31 25 -125 l0 -100 -25 0 c-22 0 -25
-4 -25 -35 l0 -35 95 0 95 0 0 35 c0 32 -2 35 -30 35 l-30 0 0 115 c0 124 -10
160 -52 189 -33 24 -134 21 -175 -4 -33 -20 -33 -20 -33 0 0 18 -7 20 -65 20
l-65 0 0 -40z"/>
<path d="M5490 1430 c0 -38 2 -40 30 -40 l30 0 0 -115 c0 -86 4 -124 16 -146
28 -55 117 -75 192 -44 24 10 38 12 40 5 2 -5 30 -10 63 -10 l59 0 0 35 c0 28
-4 35 -20 35 -19 0 -20 7 -20 160 l0 160 -70 0 -70 0 0 -40 c0 -38 2 -40 30
-40 l30 0 0 -109 0 -109 -41 -16 c-25 -10 -53 -14 -70 -11 -52 12 -59 35 -59
187 l0 138 -70 0 -70 0 0 -40z"/>
<path d="M6680 1430 c0 -36 3 -40 25 -40 l25 0 0 -120 0 -120 -25 0 c-22 0
-25 -4 -25 -35 l0 -35 100 0 100 0 0 35 c0 33 -2 35 -35 35 l-35 0 0 84 c0 47
4 96 10 110 11 31 61 67 68 48 2 -7 21 -12 43 -12 l39 0 0 45 0 45 -54 0 c-39
0 -60 -6 -80 -21 l-26 -20 0 20 c0 19 -6 21 -65 21 l-65 0 0 -40z"/>
<path d="M7040 1430 c0 -36 3 -40 25 -40 l25 0 0 -120 0 -120 -25 0 c-22 0
-25 -4 -25 -35 l0 -35 95 0 95 0 0 35 c0 32 -2 35 -30 35 l-30 0 0 160 0 160
-65 0 -65 0 0 -40z"/>
<path d="M8550 1430 c0 -36 3 -40 25 -40 l25 0 0 -120 0 -120 -25 0 c-22 0
-25 -4 -25 -35 l0 -35 95 0 95 0 0 35 c0 32 -2 35 -30 35 l-30 0 0 105 0 105
33 20 c41 25 88 25 118 1 22 -18 24 -28 27 -125 l4 -106 -31 0 c-29 0 -31 -3
-31 -35 l0 -35 100 0 100 0 0 35 c0 32 -2 35 -30 35 l-30 0 0 110 c0 127 -13
171 -59 194 -43 23 -128 21 -168 -4 -33 -20 -33 -20 -33 0 0 18 -7 20 -65 20
l-65 0 0 -40z"/>
<path d="M1550 720 c0 -38 2 -40 30 -40 l30 0 0 -215 0 -215 -30 0 c-28 0 -30
-3 -30 -35 l0 -35 100 0 100 0 0 35 c0 32 -2 35 -30 35 l-30 0 0 255 0 255
-70 0 -70 0 0 -40z"/>
<path d="M2720 720 c0 -38 2 -40 30 -40 30 0 30 0 30 -57 l0 -58 -89 0 c-99 0
-125 -12 -168 -74 -65 -96 -24 -267 74 -307 44 -19 133 -18 161 2 12 8 22 10
22 5 0 -7 26 -11 65 -11 l65 0 0 35 c0 31 -3 35 -25 35 l-25 0 0 255 0 255
-70 0 -70 0 0 -40z m35 -232 c24 -11 25 -14 25 -114 0 -95 -2 -104 -22 -118
-12 -9 -42 -16 -65 -16 -112 0 -161 159 -72 234 34 29 89 35 134 14z"/>
<path d="M4680 720 c0 -36 3 -40 25 -40 l25 0 0 -215 0 -215 -30 0 c-28 0 -30
-3 -30 -35 l0 -35 100 0 100 0 0 35 c0 32 -2 35 -30 35 l-30 0 0 108 0 108 35
17 c47 22 77 21 109 -4 25 -20 26 -24 26 -125 l0 -104 -25 0 c-22 0 -25 -4
-25 -35 l0 -35 100 0 100 0 0 35 c0 32 -2 35 -30 35 l-30 0 0 98 c0 168 -26
213 -130 220 -47 3 -66 0 -95 -16 l-35 -21 0 114 0 115 -65 0 -65 0 0 -40z"/>
<path d="M1868 739 c-12 -6 -18 -22 -18 -45 0 -43 34 -64 75 -46 20 9 25 19
25 46 0 48 -40 70 -82 45z"/>
<path d="M7162 734 c-40 -28 -16 -94 35 -94 25 0 53 30 53 58 0 20 -33 52 -55
52 -6 0 -21 -7 -33 -16z"/>
<path d="M225 728 c-3 -7 -42 -116 -88 -243 -79 -218 -85 -230 -110 -233 -23
-3 -27 -8 -27 -38 l0 -34 100 0 100 0 0 34 c0 31 -3 35 -29 38 l-28 3 20 53
20 52 107 0 107 0 12 -41 c7 -23 15 -47 18 -55 3 -9 -2 -14 -16 -14 -17 0 -21
-6 -21 -35 l0 -35 95 0 95 0 0 35 c0 31 -3 35 -27 35 -27 0 -30 6 -114 243
l-86 242 -62 3 c-43 2 -63 -1 -66 -10z m99 -173 c20 -55 36 -103 36 -107 0 -5
-34 -8 -76 -8 -42 0 -74 4 -72 8 2 5 19 54 38 110 19 55 35 100 37 99 1 -1 18
-47 37 -102z"/>
<path d="M3160 700 c0 -36 3 -40 25 -40 l25 0 0 -205 0 -205 -25 0 c-22 0 -25
-4 -25 -35 l0 -35 95 0 95 0 0 35 c0 32 -2 35 -30 35 l-30 0 0 197 c0 108 2
194 3 192 2 -2 46 -107 97 -232 l93 -228 40 3 40 3 89 220 c49 121 91 222 94
224 2 2 4 -82 4 -187 l0 -192 -30 0 c-28 0 -30 -3 -30 -35 l0 -35 95 0 95 0 0
35 c0 31 -3 35 -25 35 l-25 0 0 205 0 205 25 0 c23 0 25 4 25 40 l0 41 -91 -3
-91 -3 -86 -227 c-77 -203 -88 -225 -98 -205 -6 12 -46 115 -89 230 l-78 207
-93 0 -94 0 0 -40z"/>
<path d="M4463 673 c-30 -15 -33 -21 -33 -60 0 -41 -1 -43 -30 -43 -28 0 -30
-3 -30 -35 0 -32 2 -35 29 -35 l30 0 3 -146 c3 -139 4 -147 27 -165 17 -14 39
-19 80 -19 70 0 86 9 77 44 -6 24 -10 26 -41 20 -59 -11 -65 2 -65 142 l0 124
45 0 c45 0 45 0 45 35 0 35 0 35 -45 35 l-45 0 0 60 c0 33 -3 60 -7 59 -5 0
-23 -8 -40 -16z"/>
<path d="M6893 673 c-30 -15 -33 -21 -33 -60 0 -41 -1 -43 -30 -43 -28 0 -30
-3 -30 -35 0 -32 2 -35 29 -35 l30 0 3 -146 c3 -139 4 -147 27 -165 17 -14 39
-19 80 -19 70 0 86 9 77 44 -6 24 -10 26 -41 20 -59 -11 -65 2 -65 142 l0 124
45 0 c45 0 45 0 45 35 0 35 0 35 -45 35 l-45 0 0 60 c0 33 -3 60 -7 59 -5 0
-23 -8 -40 -16z"/>
<path d="M2182 568 c-104 -23 -159 -152 -120 -281 34 -113 170 -155 301 -93
42 21 41 17 25 51 -13 29 -15 30 -61 10 -74 -31 -153 -11 -182 45 -31 59 -29
60 126 60 l142 0 -6 51 c-15 128 -99 186 -225 157z m91 -70 c28 -15 46 -38 47
-60 0 -16 -11 -18 -90 -18 -97 0 -104 5 -74 48 27 39 77 52 117 30z"/>
<path d="M5316 569 c-89 -21 -135 -88 -136 -197 0 -135 62 -204 184 -205 59 0
166 34 166 53 0 4 -8 18 -18 29 -16 21 -19 21 -54 7 -60 -26 -122 -21 -158 12
-16 15 -33 42 -36 60 l-6 32 142 0 143 0 -7 51 c-17 127 -99 186 -220 158z
m105 -88 c52 -52 42 -61 -66 -61 -86 0 -94 2 -88 18 25 70 104 92 154 43z"/>
<path d="M7454 555 c-71 -36 -98 -80 -102 -171 -3 -60 0 -81 18 -119 31 -63
92 -98 170 -98 68 1 109 20 146 69 23 29 25 37 13 45 -35 23 -56 20 -87 -10
-24 -24 -39 -31 -70 -31 -74 0 -118 60 -110 151 10 102 109 150 176 86 20 -19
38 -27 65 -27 36 0 37 1 37 40 0 31 -4 40 -17 40 -10 0 -40 11 -67 25 -62 32
-109 32 -172 0z"/>
<path d="M7855 565 c-22 -8 -41 -15 -42 -15 -10 -1 -33 -66 -33 -95 0 -48 38
-86 110 -110 72 -23 100 -41 100 -65 0 -53 -109 -65 -132 -14 -9 20 -18 24
-55 24 -43 0 -43 0 -43 -35 0 -26 4 -35 17 -35 9 0 27 -9 39 -21 44 -41 147
-47 204 -11 39 24 49 43 50 93 0 57 -25 93 -78 109 -20 7 -59 22 -85 33 -42
17 -48 23 -45 46 6 51 101 54 123 3 8 -18 18 -22 52 -22 l43 0 0 40 c0 28 -4
40 -14 40 -8 0 -30 9 -49 20 -46 27 -113 34 -162 15z"/>
<path d="M600 530 c0 -36 3 -40 25 -40 l25 0 0 -205 0 -205 -25 0 c-22 0 -25
-4 -25 -40 l0 -40 100 0 100 0 0 40 c0 38 -2 40 -30 40 -29 0 -30 1 -30 48 l0
47 83 0 c77 0 87 2 121 29 105 79 103 272 -3 343 -41 28 -135 32 -181 8 -27
-14 -30 -14 -30 0 0 12 -13 15 -65 15 l-65 0 0 -40z m288 -46 c72 -50 66 -191
-9 -229 -33 -17 -92 -19 -120 -5 -17 10 -19 22 -19 115 0 96 2 105 22 119 29
20 97 20 126 0z"/>
<path d="M1070 530 c0 -36 3 -40 25 -40 l25 0 0 -205 0 -205 -25 0 c-22 0 -25
-4 -25 -40 l0 -40 100 0 100 0 0 40 c0 39 -1 40 -35 40 l-35 0 0 48 0 47 88 0
c82 0 91 2 126 29 105 79 103 272 -3 343 -41 28 -135 32 -181 8 -27 -14 -30
-14 -30 0 0 12 -13 15 -65 15 l-65 0 0 -40z m288 -46 c72 -50 66 -191 -9 -229
-37 -19 -99 -19 -127 1 -20 14 -22 23 -22 109 0 89 1 95 26 114 32 25 100 28
132 5z"/>
<path d="M1800 530 c0 -38 2 -40 30 -40 l30 0 0 -120 0 -120 -30 0 c-28 0 -30
-3 -30 -35 l0 -35 100 0 100 0 0 35 c0 32 -2 35 -30 35 l-30 0 0 160 0 160
-70 0 -70 0 0 -40z"/>
<path d="M4018 553 c-41 -16 -46 -29 -25 -58 12 -16 18 -16 47 -7 80 28 150 4
150 -53 0 -24 -3 -25 -62 -25 -111 -1 -178 -50 -178 -130 0 -35 28 -79 63 -97
40 -21 119 -20 152 1 14 9 25 12 25 6 0 -6 27 -10 65 -10 l65 0 0 35 c0 31 -3
35 -25 35 l-25 0 0 114 c0 133 -7 159 -52 186 -41 25 -145 26 -200 3z m172
-243 c0 -41 -16 -59 -68 -75 -33 -10 -81 13 -88 41 -11 45 29 72 109 73 l47 1
0 -40z"/>
<path d="M5620 530 c0 -38 2 -40 30 -40 l30 0 0 -120 0 -120 -30 0 c-28 0 -30
-3 -30 -35 l0 -35 95 0 95 0 0 35 c0 31 -3 35 -25 35 l-25 0 0 105 0 105 33
20 c41 26 78 25 111 -1 25 -20 26 -24 26 -125 l0 -104 -25 0 c-22 0 -25 -4
-25 -35 l0 -35 95 0 95 0 0 35 c0 31 -3 35 -25 35 l-25 0 0 109 0 109 34 16
c48 23 83 20 111 -9 23 -22 25 -31 25 -125 l0 -100 -25 0 c-22 0 -25 -4 -25
-35 l0 -35 95 0 95 0 0 35 c0 32 -2 35 -29 35 l-29 0 -4 130 c-3 126 -4 130
-30 157 -22 21 -39 27 -87 31 -51 4 -67 0 -107 -22 l-47 -26 -24 22 c-35 32
-130 38 -178 10 -34 -21 -35 -21 -35 -2 0 18 -7 20 -70 20 l-70 0 0 -40z"/>
<path d="M6448 553 c-41 -16 -46 -29 -25 -58 12 -16 18 -16 47 -7 80 28 150 4
150 -53 0 -24 -3 -25 -62 -25 -111 -1 -178 -50 -178 -130 0 -35 28 -79 63 -97
40 -21 119 -20 152 1 14 9 25 12 25 6 0 -6 27 -10 65 -10 l65 0 0 35 c0 31 -3
35 -25 35 l-25 0 0 114 c0 133 -7 159 -52 186 -41 25 -145 26 -200 3z m172
-243 c0 -41 -16 -59 -68 -75 -33 -10 -81 13 -88 41 -11 45 29 72 109 73 l47 1
0 -40z"/>
<path d="M7100 530 c0 -36 3 -40 25 -40 l25 0 0 -120 0 -120 -25 0 c-22 0 -25
-4 -25 -35 l0 -35 95 0 95 0 0 35 c0 31 -3 35 -25 35 l-25 0 0 160 0 160 -70
0 -70 0 0 -40z"/>
</g>
</svg>
