<?xml version="1.0" standalone="no"?>
<!DOCTYPE svg PUBLIC "-//W3C//DTD SVG 20010904//EN"
 "http://www.w3.org/TR/2001/REC-SVG-20010904/DTD/svg10.dtd">
<svg version="1.0" xmlns="http://www.w3.org/2000/svg"
 width="685.000000pt" height="314.000000pt" viewBox="0 0 685.000000 314.000000"
 preserveAspectRatio="xMidYMid meet">

<g transform="translate(0.000000,314.000000) scale(0.100000,-0.100000)"
fill="#000000" stroke="none">
<path d="M4 2938 c3 -112 11 -286 16 -388 5 -102 15 -279 21 -395 6 -115 11
-210 12 -211 1 -1 494 -5 1096 -8 l1094 -7 -8 368 c-4 202 -7 475 -7 606 l0
237 -1116 0 -1115 0 7 -202z"/>
<path d="M2247 3104 c-4 -21 -4 -55 -2 -78 3 -23 7 -283 9 -579 l4 -537 -1107
6 c-608 4 -1108 9 -1111 11 -3 3 -12 138 -20 301 l-15 297 -3 -200 c-1 -127 8
-406 28 -765 39 -744 42 -780 51 -780 15 0 21 22 28 108 7 76 8 80 10 30 l1
-58 70 0 c39 0 70 -3 70 -6 0 -3 -10 -14 -22 -25 l-23 -18 30 -2 c17 -1 36 -1
42 0 7 1 13 -7 13 -19 0 -11 -7 -20 -15 -20 -8 0 -12 -6 -9 -14 3 -7 -2 -16
-10 -19 -11 -4 -16 -1 -17 11 0 10 -5 6 -11 -10 -5 -16 -13 -28 -17 -28 -8 0
4 -118 13 -127 3 -4 6 5 7 18 1 18 4 14 11 -14 9 -32 7 -41 -7 -58 -10 -10
-15 -22 -11 -26 4 -4 11 -1 15 6 5 7 14 10 20 7 6 -4 11 0 11 8 0 10 9 16 21
16 18 0 20 -4 14 -27 -9 -36 -9 -37 -33 -22 -16 10 -23 10 -35 -3 -21 -20 -33
-68 -18 -69 6 -1 16 -3 21 -4 6 -1 15 -3 21 -4 7 -1 9 -11 4 -28 -9 -36 -23
-53 -40 -47 -7 3 -23 -4 -34 -15 -29 -29 -41 -26 -41 10 0 17 -4 28 -10 24 -5
-3 -10 -2 -10 3 0 14 35 42 53 42 10 0 17 8 17 20 0 16 -5 19 -24 14 l-24 -6
2 140 c1 128 0 139 -16 131 -9 -5 -19 -14 -22 -21 -5 -10 -7 -10 -12 0 -8 18
-27 15 -20 -4 8 -22 -4 -40 -15 -23 -7 11 -9 10 -9 -3 0 -11 8 -18 19 -18 25
0 37 -18 22 -33 -19 -19 -13 -40 9 -34 17 4 20 0 20 -24 0 -16 0 -32 1 -36 0
-4 -5 -9 -12 -12 -8 -2 -10 4 -5 22 8 32 -11 46 -28 21 -11 -15 -11 -20 1 -32
8 -8 12 -21 9 -29 -3 -8 -6 -24 -6 -36 0 -18 -2 -19 -10 -7 -7 11 -10 7 -10
-17 0 -22 -6 -36 -21 -43 -11 -7 -23 -9 -27 -6 -3 4 -8 46 -10 94 -7 141 -22
121 -21 -29 0 -73 3 -128 6 -121 5 12 54 17 65 7 12 -12 -5 -55 -22 -55 -36 0
-50 -43 -50 -155 l0 -105 3425 0 3425 0 -2 253 c-1 138 -3 228 -5 199 -4 -48
-6 -53 -26 -52 -42 4 -57 0 -57 -15 0 -8 -6 -15 -14 -15 -15 0 -26 60 -18 93
6 23 52 23 53 0 0 -14 3 -13 11 5 6 12 15 22 20 22 4 0 8 11 8 25 0 22 -2 24
-19 13 -10 -6 -17 -18 -14 -25 4 -9 -4 -13 -25 -13 -28 0 -30 2 -30 41 -1 33
2 38 13 29 10 -8 15 -8 20 0 8 13 -2 61 -13 57 -4 -1 -8 1 -10 6 -5 16 -1 19
13 7 9 -7 18 -10 22 -7 3 4 12 -1 19 -11 7 -9 15 -14 19 -10 10 9 -5 49 -15
43 -5 -3 -14 4 -20 15 -13 25 -27 26 -34 3 -7 -26 1 43 13 107 9 46 8 61 -6
93 -15 35 -16 56 -5 240 19 315 31 510 42 657 9 131 14 202 45 701 8 130 14
313 14 405 l-1 169 -23 -330 c-12 -181 -28 -432 -35 -557 l-13 -228 -431 0
c-237 0 -732 -3 -1100 -7 l-669 -6 7 269 c14 481 22 918 18 942 -2 12 -11 22
-18 22 -11 0 -14 -18 -14 -77 0 -43 -4 -202 -10 -353 -5 -151 -12 -393 -16
-537 l-7 -263 -1117 0 -1117 0 -6 167 c-4 91 -7 239 -7 328 0 361 -13 735 -25
735 -7 0 -15 -16 -18 -36z m-2162 -1582 c10 -178 15 -326 11 -329 -3 -4 -6 12
-6 35 0 37 -23 446 -35 607 -3 50 -2 61 4 40 5 -16 17 -175 26 -353z m4495 -8
c-6 -208 -12 -388 -15 -399 -2 -11 -2 62 -1 162 2 161 1 181 -13 176 -12 -3
-12 -2 2 7 15 10 17 30 17 179 0 153 7 267 16 258 2 -2 -1 -174 -6 -383z
m-2323 3 c-1 -67 -3 -9 -3 128 0 138 2 192 3 122 2 -71 2 -183 0 -250z m3303
342 c0 -6 -4 -7 -10 -4 -5 3 -10 11 -10 16 0 6 5 7 10 4 6 -3 10 -11 10 -16z
m-433 -21 c-3 -7 -5 -2 -5 12 0 14 2 19 5 13 2 -7 2 -19 0 -25z m1618 -85 c-4
-65 -10 -121 -14 -125 -3 -4 -3 34 1 85 3 51 7 107 7 125 1 17 4 32 7 32 3 0
3 -53 -1 -117z m-6098 87 c-4 -17 -2 -20 15 -14 12 3 18 2 15 -3 -3 -5 -36
-10 -73 -11 -37 -1 -65 1 -62 4 3 3 20 6 37 6 18 1 31 6 31 14 0 7 8 15 18 17
9 3 19 5 21 6 2 0 1 -8 -2 -19z m1303 2 c0 -10 -7 -19 -15 -19 -18 0 -19 9 -3
25 16 16 18 15 18 -6z m-1479 -15 c-10 -9 -11 -8 -5 6 3 10 9 15 12 12 3 -3 0
-11 -7 -18z m814 5 c37 -7 30 -13 -12 -11 -34 2 -40 5 -31 16 6 8 14 10 17 6
3 -4 15 -10 26 -11z m345 3 c0 -8 -4 -15 -10 -15 -5 0 -7 7 -4 15 4 8 8 15 10
15 2 0 4 -7 4 -15z m40 5 c0 -5 -8 -10 -17 -10 -15 0 -16 2 -3 10 19 12 20 12
20 0z m197 -15 c-8 -8 -14 -9 -18 -3 -4 6 -12 8 -18 4 -6 -4 -9 -2 -5 7 3 9
14 12 29 9 19 -3 21 -7 12 -17z m-647 3 c0 -4 -9 -8 -20 -8 -11 0 -20 4 -20 8
0 4 9 8 20 8 11 0 20 -4 20 -8z m330 2 c0 -5 -8 -10 -17 -10 -15 0 -16 2 -3
10 19 12 20 12 20 0z m37 4 c-3 -3 -12 -4 -19 -1 -8 3 -5 6 6 6 11 1 17 -2 13
-5z m140 -16 c-3 -8 -6 -5 -6 6 -1 11 2 17 5 13 3 -3 4 -12 1 -19z m68 12 c3
-5 1 -10 -4 -10 -6 0 -11 5 -11 10 0 6 2 10 4 10 3 0 8 -4 11 -10z m180 0 c3
-5 1 -10 -4 -10 -6 0 -11 5 -11 10 0 6 2 10 4 10 3 0 8 -4 11 -10z m-1705 -12
c0 -4 -9 -8 -20 -8 -11 0 -20 4 -20 9 0 6 9 9 20 8 11 -1 20 -5 20 -9z m175 2
c-3 -5 -12 -10 -18 -10 -7 0 -6 4 3 10 19 12 23 12 15 0z m360 0 c4 -6 -6 -10
-22 -9 -25 0 -26 1 -8 9 11 5 21 9 22 9 1 1 5 -3 8 -9z m45 0 c0 -5 -5 -10
-11 -10 -5 0 -7 5 -4 10 3 6 8 10 11 10 2 0 4 -4 4 -10z m195 0 c-3 -5 -11
-10 -16 -10 -6 0 -7 5 -4 10 3 6 11 10 16 10 6 0 7 -4 4 -10z m946 -13 c-10
-9 -11 -8 -5 6 3 10 9 15 12 12 3 -3 0 -11 -7 -18z m2952 16 c-7 -2 -19 -2
-25 0 -7 3 -2 5 12 5 14 0 19 -2 13 -5z m-4620 -10 c-7 -2 -19 -2 -25 0 -7 3
-2 5 12 5 14 0 19 -2 13 -5z m1328 -30 c-12 -20 -14 -14 -5 12 4 9 9 14 11 11
3 -2 0 -13 -6 -23z m3280 -14 c-5 -13 -10 -19 -10 -12 -1 15 10 45 15 40 3 -2
0 -15 -5 -28z m-315 -5 c-4 -9 -9 -15 -11 -12 -3 3 -3 13 1 22 4 9 9 15 11 12
3 -3 3 -13 -1 -22z m72 5 c25 -1 -17 -18 -43 -17 -17 0 -17 1 -2 5 9 2 17 12
18 21 0 11 2 12 6 5 2 -7 12 -13 21 -14z m55 1 c3 -12 0 -20 -8 -20 -8 0 -11
8 -8 20 3 11 7 20 8 20 1 0 5 -9 8 -20z m97 0 c0 -16 -7 -20 -36 -20 -23 0
-33 4 -28 11 3 6 15 8 26 6 11 -3 21 0 25 9 7 20 13 17 13 -6z m190 5 c0 -8
-4 -15 -10 -15 -5 0 -7 7 -4 15 4 8 8 15 10 15 2 0 4 -7 4 -15z m60 5 c0 -5
-6 -10 -14 -10 -8 0 -18 5 -21 10 -3 6 3 10 14 10 12 0 21 -4 21 -10z m85 0
c17 -8 16 -8 -7 -7 -16 1 -28 5 -28 9 0 10 9 9 35 -2z m50 0 c3 -5 -1 -10 -9
-10 -9 0 -16 5 -16 10 0 6 4 10 9 10 6 0 13 -4 16 -10z m55 1 c0 -5 -9 -7 -20
-4 -11 3 -20 7 -20 9 0 2 9 4 20 4 11 0 20 -4 20 -9z m-2340 -78 c0 -7 -58 29
-88 55 -15 13 -1 6 31 -14 31 -20 57 -39 57 -41z m1964 55 c-3 -4 -16 -7 -29
-6 -31 3 -24 14 9 14 13 0 23 -4 20 -8z m-3520 -6 c3 -5 -1 -9 -9 -9 -8 0 -12
4 -9 9 3 4 7 8 9 8 2 0 6 -4 9 -8z m-568 -28 c-4 -9 -9 -15 -11 -12 -3 3 -3
13 1 22 4 9 9 15 11 12 3 -3 3 -13 -1 -22z m-26 -14 c0 -5 -2 -10 -4 -10 -3 0
-8 5 -11 10 -3 6 -1 10 4 10 6 0 11 -4 11 -10z m55 0 c3 -5 -1 -10 -10 -10 -9
0 -13 5 -10 10 3 6 8 10 10 10 2 0 7 -4 10 -10z m3817 -20 c16 0 1 -13 -18
-16 -10 -2 -14 3 -10 13 3 8 7 20 7 26 1 7 3 4 6 -5 2 -10 9 -18 15 -18z m504
18 c4 -7 4 -10 -1 -6 -4 4 -15 2 -24 -5 -14 -11 -14 -10 -2 6 16 20 18 21 27
5z m29 2 c3 -5 1 -10 -4 -10 -6 0 -11 5 -11 10 0 6 2 10 4 10 3 0 8 -4 11 -10z
m965 -11 c0 -5 -4 -9 -10 -9 -5 0 -10 7 -10 16 0 8 5 12 10 9 6 -3 10 -10 10
-16z m70 11 c0 -5 -9 -14 -20 -20 -23 -12 -26 -6 -7 15 14 17 27 19 27 5z
m-4909 -17 c13 -16 12 -17 -3 -4 -10 7 -18 15 -18 17 0 8 8 3 21 -13z m3382
-3 c-3 -12 -8 -19 -11 -16 -5 6 5 36 12 36 2 0 2 -9 -1 -20z m-2959 -6 c3 -8
2 -12 -4 -9 -6 3 -10 10 -10 16 0 14 7 11 14 -7z m1271 -29 c23 -20 18 -19
-17 6 -27 18 -48 34 -48 36 0 7 35 -16 65 -42z m485 13 c0 -5 -4 -8 -10 -8 -5
0 -10 10 -10 23 0 18 2 19 10 7 5 -8 10 -18 10 -22z m1300 22 c12 -7 10 -9 -8
-7 -12 0 -22 5 -22 9 0 11 12 10 30 -2z m1557 4 c-3 -3 -12 -4 -19 -1 -8 3 -5
6 6 6 11 1 17 -2 13 -5z m-5960 -26 c-3 -8 -6 -5 -6 6 -1 11 2 17 5 13 3 -3 4
-12 1 -19z m-57 6 c0 -8 -19 -13 -24 -6 -3 5 1 9 9 9 8 0 15 -2 15 -3z m30 -4
c0 -5 -5 -10 -11 -10 -5 0 -7 5 -4 10 3 6 8 10 11 10 2 0 4 -4 4 -10z m444 -1
c-3 -6 0 -15 7 -20 9 -6 10 -9 2 -9 -15 0 -26 17 -18 30 3 6 8 10 11 10 3 0 2
-5 -2 -11z m97 -12 c-10 -9 -11 -8 -5 6 3 10 9 15 12 12 3 -3 0 -11 -7 -18z
m-125 -12 c-3 -23 -12 -26 -13 -5 -1 11 2 20 7 20 4 0 7 -7 6 -15z m3257 8
c-7 -2 -21 -2 -30 0 -10 3 -4 5 12 5 17 0 24 -2 18 -5z m-154 -19 c18 -9 43
-14 56 -11 14 2 22 1 20 -4 -3 -4 1 -10 7 -13 7 -4 2 -4 -12 0 -14 3 -73 8
-132 11 -60 3 -108 8 -108 12 0 3 19 5 43 3 32 -3 74 5 93 17 0 1 15 -6 33
-15z m1226 -8 c27 3 28 3 7 -6 -19 -8 -39 -8 -70 -1 -2 1 0 6 3 11 4 7 11 7
18 2 7 -5 26 -8 42 -6z m-2828 -33 c-3 -10 -5 -4 -5 12 0 17 2 24 5 18 2 -7 2
-21 0 -30z m784 20 c13 -16 12 -17 -3 -4 -17 13 -22 21 -14 21 2 0 10 -8 17
-17z m1613 1 c3 -8 2 -12 -4 -9 -6 3 -10 1 -10 -4 0 -6 -9 -11 -20 -11 -11 0
-20 4 -20 10 0 5 7 7 15 4 8 -4 17 1 21 10 8 20 10 20 18 0z m333 10 c-3 -3
-12 -4 -19 -1 -8 3 -5 6 6 6 11 1 17 -2 13 -5z m-2387 -29 c0 13 38 17 45 5 3
-5 -3 -8 -12 -8 -10 0 -26 -3 -35 -7 -14 -5 -18 -2 -18 11 0 16 2 17 10 4 5
-8 10 -10 10 -5z m4100 -50 c0 -36 -3 -65 -7 -65 -5 0 -6 29 -5 65 2 36 6 65
8 65 2 0 4 -29 4 -65z m-3619 38 c13 -16 12 -17 -3 -4 -10 7 -18 15 -18 17 0
8 8 3 21 -13z m2819 3 c0 -3 -4 -8 -10 -11 -5 -3 -10 -1 -10 4 0 6 5 11 10 11
6 0 10 -2 10 -4z m-1545 -16 c3 -6 -1 -7 -9 -4 -18 7 -21 14 -7 14 6 0 13 -4
16 -10z m-1234 -17 c13 -16 12 -17 -3 -4 -17 13 -22 21 -14 21 2 0 10 -8 17
-17z m2489 -3 c0 -5 -9 -6 -20 -3 -11 3 -17 9 -15 14 7 10 35 1 35 -11z
m-1159 -15 c0 -5 -4 -11 -10 -13 -6 -2 -11 1 -11 6 0 6 -8 13 -17 15 -10 3 -6
4 10 3 15 -1 28 -6 28 -11z m172 -5 c21 -1 21 -1 3 -11 -14 -9 -20 -8 -26 1
-4 7 -13 9 -19 6 -6 -4 -11 -3 -11 3 0 12 24 21 28 10 2 -5 13 -9 25 -9z
m-3168 0 c3 -5 1 -10 -4 -10 -6 0 -11 5 -11 10 0 6 2 10 4 10 3 0 8 -4 11 -10z
m1765 -57 c0 -2 -18 10 -40 27 -22 17 -40 34 -40 37 0 2 18 -10 40 -27 22 -17
40 -34 40 -37z m3020 63 c0 -11 -19 -15 -25 -6 -3 5 1 10 9 10 9 0 16 -2 16
-4z m37 -2 c-3 -3 -12 -4 -19 -1 -8 3 -5 6 6 6 11 1 17 -2 13 -5z m-5140 -10
c-3 -3 -12 -4 -19 -1 -8 3 -5 6 6 6 11 1 17 -2 13 -5z m46 -1 c-7 -2 -19 -2
-25 0 -7 3 -2 5 12 5 14 0 19 -2 13 -5z m3502 -3 c3 -6 -1 -7 -9 -4 -18 7 -21
14 -7 14 6 0 13 -4 16 -10z m-3037 -7 c-15 -2 -42 -2 -60 0 -18 2 -6 4 27 4
33 0 48 -2 33 -4z m2503 -10 c13 -16 12 -17 -3 -4 -17 13 -22 21 -14 21 2 0
10 -8 17 -17z m-2353 0 c-10 -2 -28 -2 -40 0 -13 2 -5 4 17 4 22 1 32 -1 23
-4z m75 -10 c-7 -2 -21 -2 -30 0 -10 3 -4 5 12 5 17 0 24 -2 18 -5z m2327 -28
c13 -14 21 -25 18 -25 -2 0 -15 11 -28 25 -13 14 -21 25 -18 25 2 0 15 -11 28
-25z m-790 5 c0 -5 -9 -10 -20 -10 -11 0 -20 -5 -20 -12 0 -6 -3 -9 -6 -5 -4
3 -4 13 -1 22 7 16 47 21 47 5z m1260 0 c0 -5 -5 -10 -11 -10 -5 0 -7 5 -4 10
3 6 8 10 11 10 2 0 4 -4 4 -10z m1290 -10 c0 -5 -5 -10 -11 -10 -5 0 -7 5 -4
10 3 6 8 10 11 10 2 0 4 -4 4 -10z m-2695 -20 c4 -6 11 -7 17 -4 7 4 8 2 4 -5
-6 -9 -12 -9 -24 1 -10 7 -19 14 -21 15 -2 2 1 3 7 3 6 0 14 -5 17 -10z m2645
0 c0 -5 -5 -10 -11 -10 -5 0 -7 5 -4 10 3 6 8 10 11 10 2 0 4 -4 4 -10z m777
-82 c-2 -18 -4 -4 -4 32 0 36 2 50 4 33 2 -18 2 -48 0 -65z m-2168 11 c1 -33
-2 -58 -7 -55 -11 6 -14 116 -3 116 4 0 9 -27 10 -61z m95 8 c5 1 13 7 17 15
7 10 9 9 9 -4 0 -11 -8 -18 -19 -18 -11 0 -25 -2 -33 -3 -7 -2 -10 -2 -5 0 4
3 8 19 8 36 l1 32 7 -30 c3 -16 10 -29 15 -28z m-2346 18 c-3 -3 -9 2 -12 12
-6 14 -5 15 5 6 7 -7 10 -15 7 -18z m290 18 c-10 -2 -26 -2 -35 0 -10 3 -2 5
17 5 19 0 27 -2 18 -5z m658 -5 c4 -6 3 -8 -4 -4 -5 3 -12 1 -14 -6 -3 -7 -9
-8 -18 -3 -13 8 -10 11 27 24 1 1 5 -4 9 -11z m124 -10 c14 0 5 -4 -20 -7 -53
-8 -56 -7 -39 13 9 9 18 11 24 5 5 -5 20 -10 35 -11z m1400 -18 c5 0 16 7 24
16 17 16 21 8 8 -13 -4 -7 -22 -12 -39 -10 -28 2 -30 4 -19 27 11 24 11 24 14
2 2 -12 7 -22 12 -22z m-3366 10 c-22 -9 -29 -6 -20 9 4 6 14 7 23 4 15 -6 14
-7 -3 -13z m1419 13 c-7 -2 -19 -2 -25 0 -7 3 -2 5 12 5 14 0 19 -2 13 -5z
m80 0 c-13 -2 -33 -2 -45 0 -13 2 -3 4 22 4 25 0 35 -2 23 -4z m120 0 c-7 -2
-19 -2 -25 0 -7 3 -2 5 12 5 14 0 19 -2 13 -5z m60 0 c-7 -2 -21 -2 -30 0 -10
3 -4 5 12 5 17 0 24 -2 18 -5z m410 -10 c-13 -2 -33 -2 -45 0 -13 2 -3 4 22 4
25 0 35 -2 23 -4z m1222 -13 c3 -5 -3 -10 -15 -10 -12 0 -18 5 -15 10 3 6 10
10 15 10 5 0 12 -4 15 -10z m338 -5 c4 -8 2 -17 -3 -20 -6 -4 -10 3 -10 14 0
25 6 27 13 6z m-3793 -14 c0 -5 -7 -12 -16 -15 -14 -5 -15 -4 -4 9 14 17 20
19 20 6z m60 -6 c-7 -9 -15 -13 -17 -11 -7 7 7 26 19 26 6 0 6 -6 -2 -15z
m3367 -27 c-3 -8 -6 -5 -6 6 -1 11 2 17 5 13 3 -3 4 -12 1 -19z m-2419 -145
c-2 -139 -2 -142 -7 -53 -6 93 -3 200 5 200 2 0 3 -66 2 -147z m802 133 c0 -2
-8 -10 -17 -17 -16 -13 -17 -12 -4 4 13 16 21 21 21 13z m1620 -26 c0 -5 -2
-10 -4 -10 -3 0 -8 5 -11 10 -3 6 -1 10 4 10 6 0 11 -4 11 -10z m-3047 -32 c8
-18 21 -52 28 -75 12 -43 13 -43 59 -43 66 0 122 -38 139 -94 6 -23 31 -77 55
-121 l43 -80 152 2 c83 0 154 -3 157 -8 3 -5 -59 -9 -146 -9 -117 0 -151 -3
-148 -12 3 -10 44 -14 149 -16 114 -2 145 -6 152 -17 10 -19 27 -19 27 -1 0
23 48 28 283 26 122 -1 231 -1 242 -1 11 0 390 -1 843 -2 773 -2 824 -3 833
-19 12 -22 29 -23 29 -3 0 12 17 15 91 15 57 0 88 -4 84 -10 -3 -6 -2 -10 4
-10 5 0 11 4 13 9 2 5 272 11 613 15 336 3 614 6 619 6 4 0 -2 9 -15 20 l-24
19 45 0 c39 0 43 -1 28 -13 -12 -9 -14 -16 -7 -23 6 -6 8 -17 4 -23 -6 -9 -10
-9 -16 1 -6 9 -7 2 -3 -17 4 -23 2 -33 -10 -37 -9 -4 -16 -11 -16 -17 0 -6 5
-8 10 -5 11 7 12 -62 2 -138 l-7 -48 -21 20 c-12 11 -24 25 -26 32 -2 7 -11
10 -21 6 -26 -10 -24 -141 2 -181 l20 -30 -26 -13 c-29 -15 -55 -18 -33 -3 13
9 13 10 -1 10 -8 0 -25 11 -36 23 -19 22 -24 23 -84 16 -35 -5 -94 -11 -131
-15 -38 -4 -68 -11 -68 -15 0 -5 -6 -9 -14 -9 -26 0 -26 -16 0 -63 24 -46 24
-47 4 -47 -13 0 -18 -4 -14 -11 4 -8 1 -8 -13 -1 -15 9 -423 23 -423 15 0 -1
7 -9 16 -17 8 -9 11 -16 5 -16 -6 0 -11 -9 -11 -20 0 -20 -7 -20 -324 -20
l-324 0 -11 31 c-6 17 -9 35 -6 39 2 4 -19 5 -48 2 -29 -2 -49 -1 -46 2 4 4
22 8 40 8 19 0 39 5 46 10 7 5 27 10 45 11 22 1 34 8 36 20 3 15 -5 17 -57 17
-50 0 -59 3 -55 15 7 17 9 17 -178 15 l-118 -1 0 45 c0 25 4 47 10 51 6 4 6
15 -1 33 -6 14 -10 60 -9 102 2 100 2 100 -13 100 -8 0 -14 -15 -16 -41 -1
-26 2 -38 9 -34 6 3 10 -3 10 -14 0 -14 -5 -19 -15 -15 -10 4 -15 0 -15 -16 0
-11 4 -19 9 -15 19 11 21 -15 9 -104 l-12 -90 -148 -3 c-81 -2 -148 0 -148 5
0 11 -135 8 -147 -4 -6 -6 -17 -8 -25 -3 -7 4 -50 7 -95 5 -71 -2 -87 0 -109
18 -33 26 -47 27 -39 2 7 -24 -58 -78 -119 -96 -109 -33 -178 -18 -281 60 -59
46 -71 39 -13 -8 100 -81 222 -105 315 -60 23 11 53 18 66 16 14 -3 34 0 46 6
11 7 21 8 21 3 0 -15 -83 -43 -157 -53 -90 -13 -254 4 -303 32 -18 10 33 5 65
-6 16 -6 15 -3 -5 14 -14 11 -29 21 -33 21 -4 0 -20 11 -34 24 l-27 25 -445 1
c-245 0 -447 2 -449 4 -6 6 -42 157 -42 176 0 24 -60 141 -76 147 -7 3 -27 -5
-43 -16 -16 -12 -33 -21 -39 -21 -5 0 -12 -13 -15 -30 -7 -34 -18 -37 -41 -14
-14 14 -21 13 -76 -8 -33 -13 -60 -29 -60 -35 0 -19 41 -63 75 -80 17 -9 46
-30 66 -48 20 -18 42 -34 50 -37 26 -9 -10 -38 -47 -38 -28 0 -43 9 -79 47
-25 26 -45 42 -45 36 0 -6 6 -14 13 -16 7 -3 5 -6 -6 -6 -10 -1 -36 8 -57 19
l-40 20 0 -45 0 -45 -190 0 c-173 0 -191 -2 -196 -17 -3 -10 -12 -29 -19 -43
-13 -24 -19 -25 -95 -24 -44 1 -83 4 -86 7 -5 5 -11 41 -13 83 -1 7 -22 15
-48 19 -27 3 -63 9 -80 11 -32 5 -33 4 -23 -20 6 -16 6 -27 0 -31 -6 -4 -10
-2 -10 2 0 5 -15 7 -34 5 -18 -2 -37 1 -40 7 -5 7 2 11 18 11 19 0 26 5 26 20
0 27 -45 27 -85 0 -26 -17 -47 -20 -155 -20 -69 0 -130 4 -137 8 -8 5 -14 60
-18 162 -4 85 -8 160 -9 165 0 6 58 12 149 15 117 4 139 7 101 12 -27 5 -95 8
-152 8 l-104 0 0 31 0 32 530 -5 c461 -4 572 0 518 17 -15 4 -595 15 -860 15
-104 0 -188 4 -188 9 0 5 226 6 525 3 l525 -5 0 25 c0 59 26 105 105 189 l43
45 -24 23 c-28 27 -33 52 -6 28 20 -19 42 -22 42 -8 0 5 -5 22 -10 36 -9 24
-8 26 10 20 16 -5 20 -2 20 14 0 14 6 21 19 21 17 0 36 25 33 43 -1 4 4 7 12
7 7 0 21 -15 29 -32z m1487 18 c0 -10 -7 -12 -22 -8 -21 5 -21 6 -2 13 10 4
20 8 22 8 1 1 2 -5 2 -13z m-420 -22 c0 -8 -5 -12 -10 -9 -6 4 -8 11 -5 16 9
14 15 11 15 -7z m72 2 c7 4 8 2 4 -4 -11 -18 -26 -14 -25 6 0 10 3 12 6 4 2
-6 10 -9 15 -6z m2080 -18 c-7 -7 -12 -8 -12 -2 0 14 12 26 19 19 2 -3 -1 -11
-7 -17z m48 7 c0 -8 -4 -15 -10 -15 -5 0 -7 7 -4 15 4 8 8 15 10 15 2 0 4 -7
4 -15z m697 -1 c-3 -3 -12 -4 -19 -1 -8 3 -5 6 6 6 11 1 17 -2 13 -5z m1100
-26 c-3 -8 -6 -5 -6 6 -1 11 2 17 5 13 3 -3 4 -12 1 -19z m-2007 -14 c0 -8 -5
-12 -10 -9 -6 4 -8 11 -5 16 9 14 15 11 15 -7z m1724 1 c-4 -8 -8 -15 -10 -15
-2 0 -4 7 -4 15 0 8 4 15 10 15 5 0 7 -7 4 -15z m-3934 -19 c0 -2 -8 -10 -17
-17 -16 -13 -17 -12 -4 4 13 16 21 21 21 13z m3097 -2 c-3 -3 -12 -4 -19 -1
-8 3 -5 6 6 6 11 1 17 -2 13 -5z m-567 -24 c0 -5 -2 -10 -4 -10 -3 0 -8 5 -11
10 -3 6 -1 10 4 10 6 0 11 -4 11 -10z m-4908 -117 c2 -33 0 -59 -4 -56 -5 2
-7 41 -7 86 2 86 6 74 11 -30z m635 91 c-3 -3 -12 -4 -19 -1 -8 3 -5 6 6 6 11
1 17 -2 13 -5z m5803 -25 c0 -17 -5 -20 -33 -18 -19 2 -43 -4 -57 -14 -30 -21
-50 -22 -50 -2 0 8 1 15 3 15 1 0 27 9 57 20 70 25 80 25 80 -1z m-5375 -9 c3
-6 -1 -7 -9 -4 -18 7 -21 14 -7 14 6 0 13 -4 16 -10z m801 -18 c1 -7 0 -8 -3
-2 -2 5 -16 7 -30 4 -19 -5 -24 -4 -19 5 10 15 49 10 52 -7z m4721 -34 c-3 -7
-5 -2 -5 12 0 14 2 19 5 13 2 -7 2 -19 0 -25z m-4577 12 c0 -5 -2 -10 -4 -10
-3 0 -8 5 -11 10 -3 6 -1 10 4 10 6 0 11 -4 11 -10z m2995 0 c3 -5 -1 -10 -10
-10 -9 0 -13 5 -10 10 3 6 8 10 10 10 2 0 7 -4 10 -10z m-445 -35 c0 -5 -5 -3
-10 5 -5 8 -10 20 -10 25 0 6 5 3 10 -5 5 -8 10 -19 10 -25z m955 25 c-3 -5
-12 -10 -18 -10 -7 0 -6 4 3 10 19 12 23 12 15 0z m52 -82 c-3 -8 -6 -5 -6 6
-1 11 2 17 5 13 3 -3 4 -12 1 -19z m98 13 c-9 -8 -36 -10 -30 -2 2 4 11 8 20
8 8 0 13 -3 10 -6z m-200 -11 c3 -5 1 -10 -4 -10 -6 0 -11 5 -11 10 0 6 2 10
4 10 3 0 8 -4 11 -10z m-845 -24 c0 -3 -4 -8 -10 -11 -5 -3 -10 -1 -10 4 0 6
5 11 10 11 6 0 10 -2 10 -4z m1580 -10 c0 -3 -4 -8 -10 -11 -5 -3 -10 -1 -10
4 0 6 5 11 10 11 6 0 10 -2 10 -4z m-2721 -74 c14 -12 13 -13 -8 -10 -16 2
-25 10 -26 23 -2 11 -6 29 -9 40 -4 11 0 7 9 -10 10 -16 25 -36 34 -43z m1981
28 c-19 -13 -30 -13 -30 0 0 6 10 10 23 10 18 0 19 -2 7 -10z m295 -11 c-10
-15 -25 -10 -19 6 4 8 10 12 15 9 5 -3 7 -10 4 -15z m-1214 -12 c-10 -9 -11
-8 -5 6 3 10 9 15 12 12 3 -3 0 -11 -7 -18z m294 3 c-6 -20 -2 -20 474 -20
314 0 481 -3 481 -10 0 -7 -232 -10 -675 -10 -371 0 -675 3 -675 8 0 6 55 8
331 11 38 1 48 5 52 21 3 11 8 20 12 20 3 0 3 -9 0 -20z m-165 6 c0 -11 -19
-15 -25 -6 -3 5 1 10 9 10 9 0 16 -2 16 -4z m-2450 -56 c0 -5 -4 -10 -10 -10
-5 0 -10 5 -10 10 0 6 5 10 10 10 6 0 10 -4 10 -10z m2185 0 c3 -5 2 -10 -4
-10 -5 0 -13 5 -16 10 -3 6 -2 10 4 10 5 0 13 -4 16 -10z m-4245 -120 c0 -5
-4 -10 -10 -10 -5 0 -10 5 -10 10 0 6 5 10 10 10 6 0 10 -4 10 -10z m560 -343
c8 -3 3 -6 -12 -6 -16 -1 -28 1 -28 3 0 2 -3 13 -7 23 -6 17 -5 17 13 2 10 -9
26 -19 34 -22z m5995 23 c3 -5 -3 -10 -14 -10 -11 0 -23 5 -26 10 -3 6 3 10
14 10 11 0 23 -4 26 -10z m-1135 -16 c0 -8 -4 -12 -10 -9 -5 3 -10 10 -10 16
0 5 5 9 10 9 6 0 10 -7 10 -16z m-1919 -51 c6 -16 13 -42 16 -59 l4 -31 -163
-6 c-90 -3 -166 -2 -169 1 -4 4 -10 30 -14 59 l-7 52 109 4 c59 1 132 4 161 5
49 2 53 0 63 -25z m292 15 c4 -10 8 -10 15 1 8 11 13 11 33 0 22 -13 18 -14
-48 -17 -40 -2 -73 -7 -73 -11 0 -5 -10 -11 -21 -14 -21 -6 -21 -6 1 18 20 21
38 29 77 34 6 0 14 -5 16 -11z m1937 0 c0 -7 -4 -19 -9 -27 -11 -17 -25 3 -17
24 7 18 26 20 26 3z m-3764 -26 c-3 -10 -8 -34 -11 -54 l-7 -37 -129 0 -129
-1 6 28 c21 82 15 77 85 82 35 3 92 3 127 2 53 -3 62 -6 58 -20z m659 6 c5 4
5 1 1 -6 -6 -10 -11 -10 -22 -1 -8 6 -14 14 -14 16 0 3 6 0 13 -6 8 -6 18 -7
22 -3z m1495 2 c11 -7 7 -10 -17 -10 -17 0 -43 -4 -57 -10 -20 -7 -26 -6 -26
4 0 8 6 17 13 19 21 9 71 7 87 -3z m1347 4 c-3 -3 -12 -4 -19 -1 -8 3 -5 6 6
6 11 1 17 -2 13 -5z m-3202 -59 l0 -50 -129 -3 -129 -3 7 32 c3 17 6 42 6 56
l0 24 123 -3 122 -3 0 -50z m1646 28 c13 -17 13 -17 -6 -3 -11 8 -22 16 -24
17 -2 2 0 3 6 3 6 0 17 -8 24 -17z m-247 -18 c-7 -16 -24 -21 -24 -6 0 8 7 13
27 20 1 1 0 -6 -3 -14z m286 -23 c0 -15 -2 -15 -10 -2 -13 20 -13 33 0 25 6
-3 10 -14 10 -23z m1409 -2 c-21 -14 -32 1 -12 15 12 9 19 10 22 3 2 -6 -3
-14 -10 -18z m79 3 c-5 -7 -6 -17 -2 -24 4 -7 8 -29 9 -50 2 -29 -2 -39 -12
-39 -8 0 -17 9 -20 20 -3 11 -14 20 -24 20 -44 0 -26 59 18 61 10 0 13 3 6 6
-22 8 -14 21 11 19 18 -1 22 -4 14 -13z m-4071 -42 c14 -21 23 -49 23 -72 0
-24 5 -39 13 -40 9 0 9 -2 0 -5 -7 -3 -10 -11 -8 -17 11 -29 -12 -38 -107 -40
-53 -1 -99 1 -103 5 -15 14 -6 82 16 124 19 34 28 42 43 38 13 -4 16 -3 11 6
-12 19 25 41 60 38 20 -2 36 -13 52 -37z m-187 4 c0 -8 -4 -15 -10 -15 -5 0
-7 7 -4 15 4 8 8 15 10 15 2 0 4 -7 4 -15z m-163 -11 c-3 -3 -12 -4 -19 -1 -8
3 -5 6 6 6 11 1 17 -2 13 -5z m4273 -27 c0 -18 -21 -37 -39 -36 -11 0 -10 3 4
9 l20 9 -20 1 c-20 1 -20 1 -1 15 24 18 36 19 36 2z m-3716 -60 c46 -61 26
-94 -49 -83 -49 8 -58 25 -29 57 12 13 25 16 45 12 18 -3 29 -1 29 5 0 6 -7 9
-15 6 -18 -7 -47 14 -39 27 11 18 34 8 58 -24z m4119 11 c9 -1 17 -5 17 -9 0
-3 -39 -5 -87 -3 -49 2 -88 4 -88 5 0 0 -13 3 -30 5 -63 11 -35 14 65 9 58 -3
113 -6 123 -7z m803 -15 c-7 -7 -26 7 -26 19 0 6 6 6 15 -2 9 -7 13 -15 11
-17z m24 -23 c0 -5 -7 -10 -16 -10 -8 0 -12 5 -9 10 3 6 10 10 16 10 5 0 9 -4
9 -10z m-1197 -47 c-7 -2 -19 -2 -25 0 -7 3 -2 5 12 5 14 0 19 -2 13 -5z"/>
<path d="M620 1829 c0 -5 5 -7 10 -4 6 3 10 8 10 11 0 2 -4 4 -10 4 -5 0 -10
-5 -10 -11z"/>
<path d="M1628 978 c6 -85 13 -100 60 -125 43 -22 66 -20 32 4 -11 8 -20 19
-20 25 0 6 -11 21 -25 34 -19 17 -28 38 -32 74 -8 72 -20 62 -15 -12z"/>
<path d="M3608 783 c12 -2 30 -2 40 0 9 3 -1 5 -23 4 -22 0 -30 -2 -17 -4z"/>
<path d="M4715 772 c-11 -2 -25 -10 -32 -19 -10 -12 -56 -15 -297 -16 -157 0
-292 -4 -298 -9 -7 -4 120 -8 283 -8 l296 0 1 -42 c1 -24 -3 -45 -10 -50 -10
-6 -10 -8 0 -8 10 0 13 -24 11 -100 -1 -88 1 -103 17 -115 19 -13 19 -14 0
-21 -13 -5 -23 -2 -31 10 -12 15 -13 15 -19 0 -8 -21 -10 -20 42 -28 41 -6 42
-5 43 21 1 22 3 19 11 -14 8 -36 13 -43 34 -43 15 0 24 6 24 15 0 10 -10 15
-26 15 -25 0 -26 2 -20 43 9 66 11 215 3 223 -13 14 -7 22 13 17 16 -4 20 -14
20 -52 0 -33 3 -42 10 -31 5 8 10 28 10 43 0 19 4 26 11 21 9 -5 10 -44 6
-135 -5 -111 -3 -129 10 -129 12 0 14 12 9 73 -4 39 -3 124 1 187 l8 116 -30
24 c-16 14 -25 19 -20 11 6 -11 4 -13 -11 -7 -27 11 -46 13 -69 8z"/>
<path d="M652 735 c3 -3 160 -8 349 -10 189 -3 354 -8 367 -11 15 -3 22 0 22
11 0 13 -46 15 -372 15 -204 0 -369 -2 -366 -5z"/>
<path d="M2032 728 c3 -9 887 -12 897 -3 2 3 -133 5 -300 6 -167 0 -371 2
-452 4 -95 2 -147 0 -145 -7z"/>
<path d="M3870 729 c-102 -5 -101 -5 45 -6 83 -1 146 0 140 2 -23 8 -87 10
-185 4z"/>
<path d="M4890 730 c0 -6 175 -10 494 -10 303 0 497 -4 501 -10 3 -5 -23 -11
-62 -13 l-68 -3 68 -2 c50 -1 73 2 84 13 8 8 19 13 24 10 5 -4 9 -2 9 3 0 6
-11 12 -24 16 -42 10 -1026 7 -1026 -4z"/>
<path d="M3048 723 c29 -2 74 -2 100 0 26 2 2 3 -53 3 -55 0 -76 -1 -47 -3z"/>
<path d="M3322 723 c48 -2 129 -2 180 0 51 1 12 3 -87 3 -99 0 -141 -2 -93 -3z"/>
<path d="M3658 723 c17 -2 47 -2 65 0 17 2 3 4 -33 4 -36 0 -50 -2 -32 -4z"/>
<path d="M5728 693 c7 -3 16 -2 19 1 4 3 -2 6 -13 5 -11 0 -14 -3 -6 -6z"/>
<path d="M1368 683 c7 -3 16 -2 19 1 4 3 -2 6 -13 5 -11 0 -14 -3 -6 -6z"/>
<path d="M2058 683 c7 -3 16 -2 19 1 4 3 -2 6 -13 5 -11 0 -14 -3 -6 -6z"/>
<path d="M2103 683 c9 -2 23 -2 30 0 6 3 -1 5 -18 5 -16 0 -22 -2 -12 -5z"/>
<path d="M2016 595 c4 -8 8 -15 10 -15 2 0 4 7 4 15 0 8 -4 15 -10 15 -5 0 -7
-7 -4 -15z"/>
<path d="M2090 542 c0 -5 7 -15 15 -22 8 -7 15 -8 15 -2 0 5 -7 15 -15 22 -8
7 -15 8 -15 2z"/>
<path d="M628 473 c7 -3 16 -2 19 1 4 3 -2 6 -13 5 -11 0 -14 -3 -6 -6z"/>
<path d="M4339 413 c-13 -16 -12 -17 4 -4 16 13 21 21 13 21 -2 0 -10 -8 -17
-17z"/>
<path d="M4477 423 c-13 -13 -7 -53 8 -53 8 0 15 8 15 18 0 22 -14 44 -23 35z"/>
<path d="M4860 350 c0 -6 30 -10 71 -10 62 0 72 -3 76 -19 3 -11 19 -25 35
-30 41 -14 41 -14 35 9 -6 22 3 26 21 8 14 -14 102 -28 102 -16 0 4 -5 8 -11
8 -5 0 -8 4 -5 9 3 5 15 7 25 4 10 -3 28 0 38 6 14 7 23 7 31 -1 6 -6 16 -7
24 -2 22 14 61 16 84 3 31 -16 74 -4 74 21 0 18 -7 20 -91 20 -85 0 -90 -1
-84 -19 6 -19 4 -19 -24 -5 -31 16 -131 10 -131 -7 0 -5 -8 -9 -17 -9 -15 0
-16 2 -3 10 13 8 13 10 -2 11 -31 3 -36 4 -44 12 -11 11 -204 9 -204 -3z m574
-9 c3 -5 -1 -12 -10 -15 -25 -10 -34 -7 -28 9 7 17 30 20 38 6z"/>
<path d="M5215 280 c3 -6 36 -10 72 -10 83 0 79 5 -10 13 -43 4 -66 3 -62 -3z"/>
<path d="M4582 263 c48 -2 129 -2 180 0 51 1 12 3 -87 3 -99 0 -141 -2 -93 -3z"/>
<path d="M4883 263 c15 -2 39 -2 55 0 15 2 2 4 -28 4 -30 0 -43 -2 -27 -4z"/>
<path d="M2304 2869 c3 -151 7 -418 7 -594 1 -176 4 -325 6 -332 4 -10 242
-13 1103 -13 l1098 0 6 217 c3 120 10 369 16 553 6 184 10 356 10 383 l0 47
-532 1 c-293 0 -800 3 -1127 6 l-594 6 7 -274z m1193 219 c-3 -8 -6 -5 -6 6
-1 11 2 17 5 13 3 -3 4 -12 1 -19z m0 -110 c-3 -8 -6 -5 -6 6 -1 11 2 17 5 13
3 -3 4 -12 1 -19z m0 -230 c-3 -7 -5 -2 -5 12 0 14 2 19 5 13 2 -7 2 -19 0
-25z m0 -115 c-3 -10 -5 -4 -5 12 0 17 2 24 5 18 2 -7 2 -21 0 -30z m0 -90
c-3 -10 -5 -4 -5 12 0 17 2 24 5 18 2 -7 2 -21 0 -30z"/>
<path d="M4626 3027 c-10 -203 -30 -1077 -24 -1082 3 -3 489 -8 1081 -11
l1075 -5 6 73 c3 40 8 125 11 188 7 127 29 504 46 763 6 93 9 171 6 174 -3 3
-498 7 -1100 9 l-1095 4 -6 -113z m38 68 c-9 -23 33 -33 106 -25 81 8 97 4
103 -26 2 -14 2 -22 -1 -20 -3 3 -10 -2 -17 -11 -9 -13 -14 -13 -20 -3 -5 9
-4 11 3 6 7 -4 12 -3 12 3 0 5 3 17 6 25 5 12 2 15 -10 10 -10 -4 -16 -1 -16
7 0 9 -3 10 -8 3 -4 -5 -27 -10 -52 -10 -25 1 -63 -3 -85 -7 -28 -5 -35 -5
-25 2 12 8 12 13 2 23 -14 14 -16 38 -2 38 5 0 7 -7 4 -15z m262 -35 c8 0 14
4 14 8 0 4 9 8 20 8 35 0 15 -21 -23 -24 -35 -3 -37 -2 -36 25 2 23 2 24 6 6
2 -13 11 -23 19 -23z m104 31 c0 -6 -5 -13 -10 -16 -6 -4 -8 -16 -5 -28 5 -16
4 -18 -3 -8 -6 8 -15 10 -23 6 -8 -5 -5 1 5 13 11 12 16 22 12 22 -4 0 -4 5
-1 10 8 13 25 13 25 1z m37 3 c-3 -3 -2 -16 3 -29 8 -20 6 -22 -12 -18 -12 4
-16 8 -8 13 6 4 10 11 9 16 -2 14 0 24 8 24 3 0 4 -3 0 -6z m143 -19 c0 -7 8
-15 18 -17 12 -3 10 -5 -8 -9 -22 -5 -25 -2 -26 23 -1 15 3 25 7 22 5 -3 9
-11 9 -19z m357 -10 c-7 -13 -14 -20 -15 -14 -5 14 6 39 17 39 5 0 4 -11 -2
-25z m-450 -8 c-6 -20 -27 -19 -27 2 0 14 5 19 15 14 9 -3 14 -10 12 -16z
m584 -14 c11 3 16 1 13 -5 -3 -5 -20 -6 -37 -2 -18 4 -49 7 -70 7 -24 -1 -36
3 -34 11 3 6 9 10 14 9 51 -11 63 -10 75 4 12 15 13 14 16 -6 3 -17 9 -22 23
-18z m-391 17 c0 -5 -7 -10 -16 -10 -8 0 -12 5 -9 10 3 6 10 10 16 10 5 0 9
-4 9 -10z m49 -19 c-15 -5 -22 6 -14 19 6 9 10 9 16 -1 5 -8 4 -15 -2 -18z
m48 3 c2 -13 1 -15 -4 -4 -3 8 -11 19 -17 23 -7 6 -6 7 4 4 8 -2 16 -12 17
-23z m127 7 c8 -12 -28 -21 -44 -11 -9 6 -8 9 6 13 30 8 33 7 38 -2z m-67 -17
c-3 -3 -12 -4 -19 -1 -8 3 -5 6 6 6 11 1 17 -2 13 -5z m-360 -30 c-3 -3 -12
-4 -19 -1 -8 3 -5 6 6 6 11 1 17 -2 13 -5z m403 2 c0 -9 -30 -14 -35 -6 -4 6
3 10 14 10 12 0 21 -2 21 -4z m87 -2 c-3 -3 -12 -4 -19 -1 -8 3 -5 6 6 6 11 1
17 -2 13 -5z m-733 -73 c-4 -17 -9 -30 -11 -27 -3 2 -2 19 2 36 9 41 17 33 9
-9z m356 0 c-15 -30 -30 -35 -17 -6 7 14 16 25 20 25 4 0 3 -9 -3 -19z m-423
-13 c-3 -8 -6 -5 -6 6 -1 11 2 17 5 13 3 -3 4 -12 1 -19z m968 -12 c17 3 24 1
20 -6 -4 -6 -22 -10 -40 -8 -19 1 -31 6 -29 10 3 4 0 8 -7 8 -8 0 -8 4 2 16
12 14 14 14 20 -5 6 -15 14 -19 34 -15z m74 -16 c-1 -10 -2 -11 -6 -3 -3 10
-10 10 -26 1 -21 -11 -21 -10 -4 9 9 11 17 26 18 34 1 18 18 -21 18 -41z
m-813 28 c4 -6 3 -8 -4 -4 -6 3 -14 2 -17 -4 -4 -6 -29 -10 -55 -9 -27 2 -47
6 -44 10 3 5 25 7 50 5 24 -2 47 1 50 6 7 11 11 10 20 -4z m266 -5 c-6 -3 -10
-8 -8 -12 3 -4 -11 -5 -30 -3 -26 3 -32 7 -24 16 5 8 23 11 42 8 18 -3 27 -7
20 -9z m-402 -3 c0 -5 -5 -10 -11 -10 -5 0 -7 5 -4 10 3 6 8 10 11 10 2 0 4
-4 4 -10z m602 -12 c-7 -7 -12 -8 -12 -2 0 14 12 26 19 19 2 -3 -1 -11 -7 -17z
m87 -5 c-40 -47 -42 -49 -34 -33 10 19 47 60 53 60 3 0 -5 -12 -19 -27z m-453
-31 c-18 -16 -18 -16 -6 6 6 13 14 21 18 18 3 -4 -2 -14 -12 -24z m947 -19
c-7 -2 -13 -9 -13 -14 0 -6 5 -7 10 -4 6 3 10 1 10 -4 0 -6 -7 -11 -15 -11 -8
0 -15 6 -15 13 0 17 10 27 24 26 6 0 5 -3 -1 -6z m79 -15 c-5 -19 -7 -20 -10
-5 -4 21 -16 22 -36 1 -15 -14 -16 -14 -16 5 0 17 6 21 34 21 31 0 33 -2 28
-22z m201 15 c-7 -2 -19 -2 -25 0 -7 3 -2 5 12 5 14 0 19 -2 13 -5z m184 -13
c4 -13 3 -13 -6 0 -10 13 -12 13 -21 0 -8 -13 -10 -12 -10 3 0 22 31 19 37 -3z
m68 10 c3 -5 1 -10 -4 -10 -6 0 -11 5 -11 10 0 6 2 10 4 10 3 0 8 -4 11 -10z
m-705 -7 c0 -5 -5 -15 -10 -23 -7 -12 -9 -10 -7 8 1 19 17 33 17 15z m490 -13
c-8 -5 -17 -7 -19 -4 -3 3 1 9 9 14 8 5 17 7 19 4 3 -3 -1 -9 -9 -14z m45 0
c-3 -5 -11 -10 -16 -10 -6 0 -7 5 -4 10 3 6 11 10 16 10 6 0 7 -4 4 -10z
m-615 -6 c0 -8 -19 -13 -24 -6 -3 5 1 9 9 9 8 0 15 -2 15 -3z m-1113 -26 c-3
-8 -6 -5 -6 6 -1 11 2 17 5 13 3 -3 4 -12 1 -19z m264 -19 c-5 -13 -10 -19
-10 -12 -1 15 10 45 15 40 3 -2 0 -15 -5 -28z m398 0 c-10 -20 -9 -21 10 -16
11 3 21 1 21 -4 0 -5 -11 -9 -25 -9 -19 0 -25 5 -23 18 3 14 16 31 26 32 1 0
-2 -10 -9 -21z m-669 -16 c0 -9 -3 -13 -7 -10 -3 4 -13 1 -22 -5 -10 -8 -9 -4
3 10 23 26 26 27 26 5z m37 -5 c-3 -8 -6 -5 -6 6 -1 11 2 17 5 13 3 -3 4 -12
1 -19z m554 2 c-24 -21 -61 -27 -61 -11 0 6 5 13 12 17 7 5 8 3 3 -6 -6 -9 -2
-10 16 -5 13 4 26 12 27 16 2 5 9 9 15 9 7 -1 1 -10 -12 -20z m-501 -5 c0 -8
-9 -15 -20 -15 -11 0 -20 5 -20 11 0 6 7 9 15 5 8 -3 15 -1 15 4 0 6 2 10 5
10 3 0 5 -7 5 -15z m240 11 c0 -2 -7 -9 -15 -16 -13 -11 -14 -10 -9 4 5 14 24
23 24 12z m534 -11 c-4 -8 -10 -12 -15 -9 -11 6 -2 24 11 24 5 0 7 -7 4 -15z
m81 5 c-3 -5 -12 -10 -18 -10 -7 0 -6 4 3 10 19 12 23 12 15 0z m709 -6 c4 -9
4 -19 1 -22 -3 -3 -5 0 -5 6 0 6 -7 9 -15 6 -15 -6 -21 7 -8 19 11 11 21 8 27
-9z m167 7 c-8 -5 -20 -7 -28 -4 -21 8 -15 13 15 13 20 0 23 -3 13 -9z m-1411
-13 c0 -4 -9 -8 -20 -8 -11 0 -20 4 -20 8 0 4 9 8 20 8 11 0 20 -4 20 -8z m70
2 c0 -5 -5 -10 -11 -10 -5 0 -7 5 -4 10 3 6 8 10 11 10 2 0 4 -4 4 -10z m155
1 c3 -6 -3 -9 -14 -8 -11 0 -17 5 -15 9 7 11 22 10 29 -1z m435 -1 c0 -5 -4
-10 -10 -10 -5 0 -10 5 -10 10 0 6 5 10 10 10 6 0 10 -4 10 -10z m384 -5 c-4
-8 -8 -15 -10 -15 -2 0 -4 7 -4 15 0 8 4 15 10 15 5 0 7 -7 4 -15z m83 -7 c-3
-8 -6 -5 -6 6 -1 11 2 17 5 13 3 -3 4 -12 1 -19z m40 0 c-3 -8 -6 -5 -6 6 -1
11 2 17 5 13 3 -3 4 -12 1 -19z m-1550 -33 c-8 -9 -14 -9 -19 -2 -3 5 -1 16 5
22 8 9 14 9 19 2 3 -5 1 -16 -5 -22z m-42 6 c-3 -6 -11 -8 -17 -5 -6 4 -5 9 3
15 16 10 23 4 14 -10z m824 -53 c-2 -13 0 -29 4 -35 6 -9 2 -13 -11 -13 -19 0
-22 18 -7 53 10 24 17 21 14 -5z m-562 -20 c-3 -8 -6 -5 -6 6 -1 11 2 17 5 13
3 -3 4 -12 1 -19z m514 -5 c-12 -20 -14 -14 -5 12 4 9 9 14 11 11 3 -2 0 -13
-6 -23z m-530 -18 c5 4 9 -4 8 -17 0 -13 -3 -17 -6 -10 -4 10 -10 9 -26 -5
-17 -14 -19 -14 -9 -2 7 9 12 21 11 25 -1 5 0 18 1 29 2 18 3 18 7 -3 2 -12 9
-20 14 -17z m169 10 c0 -21 -5 -25 -29 -25 -17 0 -33 5 -36 10 -4 7 3 8 20 4
21 -5 27 -3 32 15 7 28 13 27 13 -4z m250 5 c0 -11 -4 -20 -9 -20 -5 0 -7 9
-4 20 3 11 7 20 9 20 2 0 4 -9 4 -20z m-210 -9 c-5 -11 -15 -23 -22 -27 -7 -5
-8 -2 -3 7 21 37 44 55 25 20z m780 -1 c-6 -11 -13 -20 -16 -20 -2 0 0 9 6 20
6 11 13 20 16 20 2 0 0 -9 -6 -20z m-700 -11 c0 -14 -20 -11 -21 4 0 10 -2 10
-6 0 -2 -7 -12 -13 -21 -13 -15 1 -15 2 1 15 19 14 47 10 47 -6z m61 7 c5 3 9
1 9 -5 0 -5 -9 -9 -19 -8 -12 1 -17 6 -13 16 4 10 7 11 10 3 2 -7 8 -10 13 -6z
m153 -1 c-3 -7 -14 -11 -25 -8 -23 6 -18 18 10 20 13 1 18 -3 15 -12z m386 -6
c0 -5 -4 -9 -10 -9 -5 0 -10 7 -10 16 0 8 5 12 10 9 6 -3 10 -10 10 -16z m347
-11 c-3 -7 -5 -2 -5 12 0 14 2 19 5 13 2 -7 2 -19 0 -25z m-1181 2 c0 -12 -4
-16 -9 -11 -5 5 -6 14 -3 20 10 15 12 14 12 -9z m684 16 c0 -3 -4 -8 -10 -11
-5 -3 -10 -1 -10 4 0 6 5 11 10 11 6 0 10 -2 10 -4z m200 0 c0 -11 -19 -15
-25 -6 -3 5 1 10 9 10 9 0 16 -2 16 -4z m329 -25 c-15 -5 -22 6 -14 19 6 9 10
9 16 -1 5 -8 4 -15 -2 -18z m291 19 c0 -5 -5 -10 -11 -10 -5 0 -7 5 -4 10 3 6
8 10 11 10 2 0 4 -4 4 -10z m-1568 -62 c-7 -7 -12 -8 -12 -2 0 14 12 26 19 19
2 -3 -1 -11 -7 -17z m1279 -63 c5 4 9 1 9 -4 0 -14 -27 -14 -35 -1 -4 6 -3 19
1 28 6 15 8 14 11 -6 3 -12 9 -20 14 -17z m56 -7 c-3 -7 -5 -2 -5 12 0 14 2
19 5 13 2 -7 2 -19 0 -25z m-1587 -7 c-4 -16 -6 -32 -4 -34 3 -2 -2 -7 -11
-10 -18 -8 -18 -8 0 37 18 43 27 47 15 7z m35 9 c-2 -11 -9 -28 -15 -37 -8
-14 -9 -12 -4 12 4 17 9 33 11 38 8 13 12 7 8 -13z m42 -2 c-3 -8 -6 -5 -6 6
-1 11 2 17 5 13 3 -3 4 -12 1 -19z m123 -25 c-11 -17 -11 -17 -6 0 3 10 7 26
7 35 1 15 2 15 6 0 2 -10 -1 -25 -7 -35z m117 10 c-3 -10 -5 -4 -5 12 0 17 2
24 5 18 2 -7 2 -21 0 -30z m453 29 c0 -5 -7 -17 -15 -28 -14 -18 -14 -17 -4 9
12 27 19 34 19 19z m59 -14 c-17 -33 -20 -35 -15 -7 2 13 5 25 5 27 1 1 6 2
11 2 7 0 7 -8 -1 -22z m911 12 c0 -5 -5 -10 -11 -10 -5 0 -7 5 -4 10 3 6 8 10
11 10 2 0 4 -4 4 -10z m-1393 -22 c-3 -8 -6 -5 -6 6 -1 11 2 17 5 13 3 -3 4
-12 1 -19z m643 14 c0 -10 -22 -32 -32 -32 -5 0 -3 9 4 20 13 20 28 27 28 12z
m870 -12 c0 -5 -5 -10 -11 -10 -5 0 -7 5 -4 10 3 6 8 10 11 10 2 0 4 -4 4 -10z
m-1466 -15 c-4 -8 -11 -15 -16 -15 -6 0 -5 6 2 15 7 8 14 15 16 15 2 0 1 -7
-2 -15z m226 0 c0 -8 -4 -15 -10 -15 -5 0 -7 7 -4 15 4 8 8 15 10 15 2 0 4 -7
4 -15z m264 7 c3 -5 -1 -9 -9 -9 -8 0 -15 4 -15 9 0 4 4 8 9 8 6 0 12 -4 15
-8z m-803 -11 c7 11 9 11 9 -2 0 -9 -7 -19 -15 -23 -11 -4 -15 1 -14 17 0 13
3 16 6 8 5 -11 7 -11 14 0z m639 -1 c0 -5 -5 -10 -11 -10 -5 0 -7 5 -4 10 3 6
8 10 11 10 2 0 4 -4 4 -10z m80 -6 c0 -2 -7 -4 -15 -4 -8 0 -15 4 -15 10 0 5
7 7 15 4 8 -4 15 -8 15 -10z m-493 -10 c-3 -3 -12 -4 -19 -1 -8 3 -5 6 6 6 11
1 17 -2 13 -5z m1180 0 c-3 -3 -12 -4 -19 -1 -8 3 -5 6 6 6 11 1 17 -2 13 -5z
m-427 -8 c0 -2 -8 -10 -17 -17 -16 -13 -17 -12 -4 4 13 16 21 21 21 13z
m-1007 -24 c21 0 41 -3 44 -6 4 -3 -3 -6 -15 -6 -11 0 -26 -8 -31 -17 -10 -17
-10 -17 -11 0 0 12 -8 17 -30 17 -26 0 -29 2 -18 14 7 8 15 10 18 6 3 -4 22
-8 43 -8z m667 -6 c0 -3 -4 -8 -10 -11 -5 -3 -10 -1 -10 4 0 6 5 11 10 11 6 0
10 -2 10 -4z m100 -20 c0 -2 -7 -7 -16 -10 -8 -3 -12 -2 -9 4 6 10 25 14 25 6z
m614 -11 c-4 -8 -8 -15 -10 -15 -2 0 -4 7 -4 15 0 8 4 15 10 15 5 0 7 -7 4
-15z m-959 -14 c-3 -6 -11 -11 -17 -11 -6 0 -6 6 2 15 14 17 26 13 15 -4z m36
-4 c-13 -13 -26 -3 -16 12 3 6 11 8 17 5 6 -4 6 -10 -1 -17z m209 17 c0 -8
-19 -13 -24 -6 -3 5 1 9 9 9 8 0 15 -2 15 -3z m-90 -8 c0 -3 -4 -8 -10 -11 -5
-3 -10 -1 -10 4 0 6 5 11 10 11 6 0 10 -2 10 -4z m315 -6 c3 -5 -1 -10 -10
-10 -9 0 -13 5 -10 10 3 6 8 10 10 10 2 0 7 -4 10 -10z m105 5 c0 -2 -7 -8
-15 -15 -12 -10 -15 -10 -15 2 0 8 7 15 15 15 8 0 15 -1 15 -2z m310 -15 c0
-5 -5 -10 -11 -10 -5 0 -7 5 -4 10 3 6 8 10 11 10 2 0 4 -4 4 -10z m357 -76
c-3 -3 -12 -4 -19 -1 -8 3 -5 6 6 6 11 1 17 -2 13 -5z m-704 -19 c-3 -9 -8
-14 -10 -11 -3 3 -2 9 2 15 9 16 15 13 8 -4z m-390 -50 c-12 -9 -20 -10 -24
-3 -4 6 -19 8 -33 6 -30 -6 -33 0 -9 17 12 9 23 10 36 3 15 -8 20 -5 24 13 l6
23 9 -24 c6 -17 4 -26 -9 -35z m601 31 c-4 -10 -16 -15 -33 -15 -24 2 -24 2
-3 6 13 3 26 11 29 19 3 8 7 13 9 11 3 -2 2 -12 -2 -21z m-324 8 c0 -2 -12
-20 -26 -41 -15 -21 -23 -29 -19 -18 4 11 10 29 12 41 3 11 11 21 19 21 8 0
14 -2 14 -3z m50 -3 c0 -5 -7 -12 -16 -15 -14 -5 -15 -4 -4 9 14 17 20 19 20
6z m540 2 c0 -5 -11 -13 -24 -19 -19 -9 -23 -9 -19 2 2 7 12 15 21 17 10 3 18
5 20 6 1 0 2 -2 2 -6z m70 -3 c0 -5 -15 -10 -32 -9 -28 0 -30 2 -13 9 28 12
45 12 45 0z m70 6 c0 -3 -4 -8 -10 -11 -5 -3 -10 -1 -10 4 0 6 5 11 10 11 6 0
10 -2 10 -4z m-1256 -21 c-4 -8 -11 -15 -16 -15 -6 0 -5 6 2 15 7 8 14 15 16
15 2 0 1 -7 -2 -15z m363 -1 c-9 -9 -87 -11 -87 -2 0 4 16 7 35 6 19 -1 38 2
42 5 3 4 9 5 11 2 3 -3 3 -8 -1 -11z m73 1 c0 -8 -9 -15 -20 -15 -11 0 -20 5
-20 11 0 5 4 8 9 4 5 -3 12 -1 16 5 9 14 15 12 15 -5z m332 -7 c-7 -7 -12 -8
-12 -2 0 14 12 26 19 19 2 -3 -1 -11 -7 -17z m-642 2 c0 -5 -7 -10 -16 -10 -8
0 -12 5 -9 10 3 6 10 10 16 10 5 0 9 -4 9 -10z m-119 -107 c-12 -20 -14 -14
-5 12 4 9 9 14 11 11 3 -2 0 -13 -6 -23z m530 -6 c-5 -14 -14 -28 -19 -31 -5
-3 -2 10 6 29 18 39 28 41 13 2z m880 10 c-10 -9 -11 -8 -5 6 3 10 9 15 12 12
3 -3 0 -11 -7 -18z m-919 -19 c-7 -7 -12 -8 -12 -2 0 14 12 26 19 19 2 -3 -1
-11 -7 -17z m831 15 c-7 -2 -21 -2 -30 0 -10 3 -4 5 12 5 17 0 24 -2 18 -5z
m-1353 -7 c0 -3 -4 -8 -10 -11 -5 -3 -10 -1 -10 4 0 6 5 11 10 11 6 0 10 -2
10 -4z m417 -16 c-3 -11 -1 -20 4 -20 5 0 9 6 10 13 0 9 2 9 6 0 3 -10 10 -10
26 -2 22 10 22 10 2 -6 -11 -9 -30 -14 -42 -12 -13 2 -23 0 -23 -6 0 -6 -2 -8
-5 -5 -6 6 15 58 23 58 2 0 2 -9 -1 -20z m344 -5 c5 4 9 2 9 -3 0 -5 -11 -12
-25 -14 -26 -5 -29 -1 -19 27 6 16 8 16 16 1 5 -9 13 -14 19 -11z m-736 -5
c-3 -5 -2 -10 4 -10 5 0 12 6 14 13 4 9 6 9 6 0 1 -16 -14 -24 -33 -17 -16 6
-13 24 5 24 6 0 7 -4 4 -10z m135 1 c0 -5 -7 -12 -16 -15 -14 -5 -15 -4 -4 9
14 17 20 19 20 6z m23 -6 c-3 -9 -8 -14 -10 -11 -3 3 -2 9 2 15 9 16 15 13 8
-4z m388 -8 c-10 -9 -11 -8 -5 6 3 10 9 15 12 12 3 -3 0 -11 -7 -18z m249 1
c0 -11 -12 -10 -30 2 -12 7 -10 9 8 7 12 0 22 -5 22 -9z m-740 -35 c-11 -17
-11 -17 -6 0 3 10 6 24 7 30 0 9 2 9 5 0 3 -7 0 -20 -6 -30z"/>
<path d="M116 825 c-7 -20 49 -20 84 0 24 14 23 14 -26 15 -37 0 -54 -4 -58
-15z"/>
<path d="M10 645 c0 -8 4 -15 10 -15 5 0 7 7 4 15 -4 8 -8 15 -10 15 -2 0 -4
-7 -4 -15z"/>
</g>
</svg>
