<?xml version="1.0" standalone="no"?>
<!DOCTYPE svg PUBLIC "-//W3C//DTD SVG 20010904//EN"
 "http://www.w3.org/TR/2001/REC-SVG-20010904/DTD/svg10.dtd">
<svg version="1.0" xmlns="http://www.w3.org/2000/svg"
 width="200.000000pt" height="166.000000pt" viewBox="0 0 200.000000 166.000000"
 preserveAspectRatio="xMidYMid meet">

<g transform="translate(0.000000,166.000000) scale(0.100000,-0.100000)"
fill="#000000" stroke="none">
<path d="M855 1644 c-224 -44 -421 -230 -481 -454 -25 -94 -22 -245 6 -335 28
-90 78 -179 135 -242 48 -55 157 -133 218 -158 37 -15 37 -15 48 12 5 16 39
102 74 193 36 91 65 170 65 176 0 6 -15 18 -34 27 -43 20 -81 70 -95 123 -42
158 133 295 279 219 69 -36 117 -134 101 -206 -16 -71 -47 -112 -107 -143
l-32 -15 75 -193 c42 -106 79 -196 83 -201 3 -4 33 6 66 23 215 108 347 320
347 560 0 108 -15 174 -65 279 -81 169 -253 301 -441 336 -94 18 -149 18 -242
-1z m260 -45 c199 -43 378 -220 430 -424 19 -76 19 -214 0 -289 -25 -94 -83
-194 -155 -266 -66 -66 -166 -129 -179 -114 -4 5 -33 75 -65 157 l-57 147 50
49 c158 154 59 405 -159 405 -218 0 -317 -251 -160 -404 l50 -48 -61 -153
c-33 -85 -62 -155 -64 -157 -2 -2 -27 9 -56 25 -111 60 -208 175 -259 308 -17
45 -24 88 -28 172 -4 101 -2 121 21 196 93 296 383 462 692 396z"/>
<path d="M40 350 c-18 -18 -20 -33 -20 -135 0 -102 2 -117 20 -135 27 -27 81
-26 106 1 28 31 28 237 0 268 -25 27 -79 28 -106 1z m78 -133 c2 -89 0 -108
-13 -113 -34 -13 -45 14 -45 116 0 53 3 100 7 104 4 4 16 6 28 4 18 -3 20 -11
23 -111z"/>
<path d="M210 215 l0 -155 25 0 c24 0 25 3 25 55 0 49 2 55 21 55 11 0 34 13
50 29 23 23 29 38 29 71 0 42 -14 79 -34 92 -6 4 -35 8 -63 8 l-53 0 0 -155z
m95 60 c0 -44 -3 -50 -22 -53 -22 -3 -23 0 -23 53 0 53 1 56 23 53 19 -3 22
-9 22 -53z"/>
<path d="M400 215 l0 -155 65 0 c58 0 65 2 65 20 0 17 -7 20 -45 20 l-45 0 0
45 c0 45 0 45 35 45 28 0 35 4 35 19 0 15 -8 21 -32 23 -32 3 -33 5 -36 51
l-3 47 45 0 c39 0 46 3 46 20 0 18 -7 20 -65 20 l-65 0 0 -155z"/>
<path d="M570 216 l0 -156 25 0 c25 0 25 1 26 93 l1 92 31 -93 c27 -80 34 -92
54 -92 23 0 23 0 23 155 0 148 -1 155 -20 155 -19 0 -20 -7 -20 -97 0 -53 -3
-93 -7 -89 -4 4 -19 46 -33 94 -24 79 -28 87 -53 90 l-27 3 0 -155z"/>
<path d="M826 351 c-10 -11 -18 -35 -18 -56 0 -30 9 -46 52 -91 36 -38 50 -61
48 -77 -4 -30 -43 -35 -58 -8 -12 23 -50 29 -50 7 0 -7 9 -25 21 -40 16 -20
29 -26 58 -26 48 0 71 24 71 73 0 30 -9 47 -50 92 -53 58 -61 84 -34 106 15
12 19 11 32 -9 16 -24 52 -30 52 -9 0 7 -7 23 -16 35 -20 29 -83 31 -108 3z"/>
<path d="M1020 350 c-18 -18 -20 -33 -20 -135 0 -131 11 -155 73 -155 41 0 66
25 74 74 5 34 4 36 -21 36 -22 0 -26 -4 -26 -30 0 -35 -22 -49 -45 -30 -13 10
-15 33 -13 114 3 100 3 101 28 101 20 0 26 -6 28 -27 3 -23 8 -28 29 -28 23 0
25 3 19 32 -3 17 -14 40 -23 50 -22 24 -78 23 -103 -2z"/>
<path d="M1190 215 l0 -155 25 0 25 0 0 155 0 155 -25 0 -25 0 0 -155z"/>
<path d="M1280 215 l0 -155 65 0 c58 0 65 2 65 20 0 17 -7 20 -45 20 l-45 0 0
45 c0 45 0 45 35 45 28 0 35 4 35 20 0 16 -7 20 -35 20 l-35 0 0 50 0 50 45 0
c38 0 45 3 45 20 0 18 -7 20 -65 20 l-65 0 0 -155z"/>
<path d="M1450 216 c0 -149 1 -156 20 -156 19 0 20 7 20 92 0 53 4 88 9 82 5
-5 21 -46 36 -92 24 -73 29 -82 51 -82 l24 0 0 155 c0 148 -1 155 -20 155 -19
0 -20 -7 -20 -97 0 -60 -4 -93 -9 -87 -5 5 -20 47 -34 94 -22 77 -26 85 -51
88 l-26 3 0 -155z"/>
<path d="M1671 344 c-18 -23 -21 -41 -21 -129 0 -88 3 -106 21 -129 43 -55
129 -21 129 51 0 28 -3 33 -24 33 -21 0 -25 -6 -28 -32 -2 -25 -8 -33 -23 -33
-19 0 -20 7 -20 110 0 103 1 110 20 110 14 0 21 -8 23 -27 3 -22 9 -28 28 -28
20 0 24 5 24 30 0 67 -88 96 -129 44z"/>
<path d="M1850 215 l0 -155 65 0 c58 0 65 2 65 20 0 17 -7 20 -45 20 l-45 0 0
45 c0 43 1 45 30 45 23 0 30 4 30 20 0 16 -7 20 -30 20 -29 0 -30 1 -30 50 l0
50 45 0 c38 0 45 3 45 20 0 18 -7 20 -65 20 l-65 0 0 -155z"/>
</g>
</svg>
